G75*
G70*
%OFA0B0*%
%FSLAX24Y24*%
%IPPOS*%
%LPD*%
%AMOC8*
5,1,8,0,0,1.08239X$1,22.5*
%
%ADD10C,0.0000*%
%ADD11C,0.0060*%
%ADD12C,0.0050*%
%ADD13C,0.0080*%
%ADD14C,0.0348*%
%ADD15R,0.0118X0.0059*%
%ADD16R,0.0118X0.0118*%
D10*
X000645Y000524D02*
X000645Y009019D01*
X003520Y011524D01*
X007770Y011524D01*
X010645Y009019D01*
X010645Y000524D01*
X000645Y000524D01*
X004750Y009803D02*
X004752Y009823D01*
X004758Y009843D01*
X004767Y009861D01*
X004780Y009878D01*
X004795Y009891D01*
X004813Y009901D01*
X004833Y009908D01*
X004853Y009911D01*
X004873Y009910D01*
X004893Y009905D01*
X004912Y009897D01*
X004929Y009885D01*
X004943Y009870D01*
X004954Y009852D01*
X004962Y009833D01*
X004966Y009813D01*
X004966Y009793D01*
X004962Y009773D01*
X004954Y009754D01*
X004943Y009736D01*
X004929Y009721D01*
X004912Y009709D01*
X004893Y009701D01*
X004873Y009696D01*
X004853Y009695D01*
X004833Y009698D01*
X004813Y009705D01*
X004795Y009715D01*
X004780Y009728D01*
X004767Y009745D01*
X004758Y009763D01*
X004752Y009783D01*
X004750Y009803D01*
X006324Y009803D02*
X006326Y009823D01*
X006332Y009843D01*
X006341Y009861D01*
X006354Y009878D01*
X006369Y009891D01*
X006387Y009901D01*
X006407Y009908D01*
X006427Y009911D01*
X006447Y009910D01*
X006467Y009905D01*
X006486Y009897D01*
X006503Y009885D01*
X006517Y009870D01*
X006528Y009852D01*
X006536Y009833D01*
X006540Y009813D01*
X006540Y009793D01*
X006536Y009773D01*
X006528Y009754D01*
X006517Y009736D01*
X006503Y009721D01*
X006486Y009709D01*
X006467Y009701D01*
X006447Y009696D01*
X006427Y009695D01*
X006407Y009698D01*
X006387Y009705D01*
X006369Y009715D01*
X006354Y009728D01*
X006341Y009745D01*
X006332Y009763D01*
X006326Y009783D01*
X006324Y009803D01*
D11*
X007300Y009986D02*
X007357Y009929D01*
X007470Y009929D01*
X007527Y009986D01*
X007527Y010269D01*
X007668Y010213D02*
X007668Y010156D01*
X007725Y010099D01*
X007838Y010099D01*
X007895Y010043D01*
X007895Y009986D01*
X007838Y009929D01*
X007725Y009929D01*
X007668Y009986D01*
X007668Y010213D02*
X007725Y010269D01*
X007838Y010269D01*
X007895Y010213D01*
X008037Y010269D02*
X008037Y009929D01*
X008207Y009929D01*
X008264Y009986D01*
X008264Y010043D01*
X008207Y010099D01*
X008037Y010099D01*
X008207Y010099D02*
X008264Y010156D01*
X008264Y010213D01*
X008207Y010269D01*
X008037Y010269D01*
X008405Y010156D02*
X008518Y010269D01*
X008518Y009929D01*
X008405Y009929D02*
X008632Y009929D01*
X008338Y009394D02*
X008168Y009224D01*
X008395Y009224D01*
X008338Y009054D02*
X008338Y009394D01*
X008027Y009338D02*
X007970Y009394D01*
X007857Y009394D01*
X007800Y009338D01*
X007800Y009111D01*
X007857Y009054D01*
X007970Y009054D01*
X008027Y009111D01*
X007300Y009986D02*
X007300Y010269D01*
X005603Y008519D02*
X005603Y008179D01*
X005490Y008179D02*
X005717Y008179D01*
X005490Y008406D02*
X005603Y008519D01*
X005362Y008236D02*
X005362Y008179D01*
X005306Y008179D01*
X005306Y008236D01*
X005362Y008236D01*
X005164Y008179D02*
X004937Y008179D01*
X005051Y008179D02*
X005051Y008519D01*
X004937Y008406D01*
X004428Y008349D02*
X004428Y008179D01*
X004428Y008349D02*
X004371Y008406D01*
X004201Y008406D01*
X004201Y008179D01*
X004059Y008236D02*
X004059Y008349D01*
X004002Y008406D01*
X003889Y008406D01*
X003832Y008349D01*
X003832Y008236D01*
X003889Y008179D01*
X004002Y008179D01*
X004059Y008236D01*
X003700Y008179D02*
X003587Y008179D01*
X003644Y008179D02*
X003644Y008406D01*
X003587Y008406D01*
X003644Y008519D02*
X003644Y008576D01*
X003705Y008679D02*
X003648Y008736D01*
X003648Y008849D01*
X003705Y008906D01*
X003818Y008906D01*
X003875Y008849D01*
X003875Y008793D01*
X003648Y008793D01*
X003705Y008679D02*
X003818Y008679D01*
X004017Y008736D02*
X004017Y008849D01*
X004073Y008906D01*
X004187Y008906D01*
X004243Y008849D01*
X004243Y008793D01*
X004017Y008793D01*
X004017Y008736D02*
X004073Y008679D01*
X004187Y008679D01*
X003507Y008736D02*
X003450Y008679D01*
X003280Y008679D01*
X003280Y009019D01*
X003450Y009019D01*
X003507Y008963D01*
X003507Y008906D01*
X003450Y008849D01*
X003280Y008849D01*
X003450Y008849D02*
X003507Y008793D01*
X003507Y008736D01*
X003445Y008406D02*
X003275Y008406D01*
X003219Y008349D01*
X003275Y008293D01*
X003389Y008293D01*
X003445Y008236D01*
X003389Y008179D01*
X003219Y008179D01*
X003082Y008406D02*
X003025Y008406D01*
X002912Y008293D01*
X002912Y008406D02*
X002912Y008179D01*
X002770Y008293D02*
X002543Y008293D01*
X002543Y008349D02*
X002543Y008236D01*
X002600Y008179D01*
X002713Y008179D01*
X002770Y008293D02*
X002770Y008349D01*
X002713Y008406D01*
X002600Y008406D01*
X002543Y008349D01*
X002402Y008293D02*
X002402Y008519D01*
X002345Y008679D02*
X002232Y008679D01*
X002175Y008736D01*
X002175Y009019D01*
X002402Y009019D02*
X002402Y008736D01*
X002345Y008679D01*
X002543Y008736D02*
X002600Y008679D01*
X002713Y008679D01*
X002770Y008736D01*
X002770Y008793D01*
X002713Y008849D01*
X002600Y008849D01*
X002543Y008906D01*
X002543Y008963D01*
X002600Y009019D01*
X002713Y009019D01*
X002770Y008963D01*
X002912Y009019D02*
X003082Y009019D01*
X003139Y008963D01*
X003139Y008906D01*
X003082Y008849D01*
X002912Y008849D01*
X002912Y008679D02*
X003082Y008679D01*
X003139Y008736D01*
X003139Y008793D01*
X003082Y008849D01*
X002912Y008679D02*
X002912Y009019D01*
X002402Y008293D02*
X002288Y008179D01*
X002175Y008293D01*
X002175Y008519D01*
X002732Y007269D02*
X002675Y007213D01*
X002675Y006986D01*
X002732Y006929D01*
X002845Y006929D01*
X002902Y006986D01*
X003043Y006929D02*
X003270Y006929D01*
X003157Y006929D02*
X003157Y007269D01*
X003043Y007156D01*
X002902Y007213D02*
X002845Y007269D01*
X002732Y007269D01*
X002732Y005269D02*
X002675Y005213D01*
X002675Y004986D01*
X002732Y004929D01*
X002845Y004929D01*
X002902Y004986D01*
X003043Y004929D02*
X003270Y005156D01*
X003270Y005213D01*
X003213Y005269D01*
X003100Y005269D01*
X003043Y005213D01*
X002902Y005213D02*
X002845Y005269D01*
X002732Y005269D01*
X003043Y004929D02*
X003270Y004929D01*
X003263Y003519D02*
X003263Y003236D01*
X003207Y003179D01*
X003150Y003179D01*
X003093Y003236D01*
X002952Y003236D02*
X002895Y003179D01*
X002782Y003179D01*
X002725Y003236D01*
X002782Y003349D02*
X002895Y003349D01*
X002952Y003293D01*
X002952Y003236D01*
X002782Y003349D02*
X002725Y003406D01*
X002725Y003463D01*
X002782Y003519D01*
X002895Y003519D01*
X002952Y003463D01*
X003207Y003519D02*
X003320Y003519D01*
X003462Y003406D02*
X003575Y003519D01*
X003575Y003179D01*
X003462Y003179D02*
X003689Y003179D01*
X004495Y003049D02*
X002795Y003049D01*
X002778Y003047D01*
X002761Y003043D01*
X002745Y003036D01*
X002731Y003026D01*
X002718Y003013D01*
X002708Y002999D01*
X002701Y002983D01*
X002697Y002966D01*
X002695Y002949D01*
X002695Y002349D01*
X002697Y002332D01*
X002701Y002315D01*
X002708Y002299D01*
X002718Y002285D01*
X002731Y002272D01*
X002745Y002262D01*
X002761Y002255D01*
X002778Y002251D01*
X002795Y002249D01*
X004495Y002249D01*
X004512Y002251D01*
X004529Y002255D01*
X004545Y002262D01*
X004559Y002272D01*
X004572Y002285D01*
X004582Y002299D01*
X004589Y002315D01*
X004593Y002332D01*
X004595Y002349D01*
X004595Y002949D01*
X004593Y002966D01*
X004589Y002983D01*
X004582Y002999D01*
X004572Y003013D01*
X004559Y003026D01*
X004545Y003036D01*
X004529Y003043D01*
X004512Y003047D01*
X004495Y003049D01*
X004728Y003123D02*
X004842Y003123D01*
X004785Y003123D02*
X004785Y003463D01*
X004728Y003463D02*
X004842Y003463D01*
X004974Y003407D02*
X004974Y003180D01*
X005030Y003123D01*
X005144Y003123D01*
X005201Y003180D01*
X005342Y003123D02*
X005569Y003123D01*
X005456Y003123D02*
X005456Y003463D01*
X005342Y003350D01*
X005201Y003407D02*
X005144Y003463D01*
X005030Y003463D01*
X004974Y003407D01*
X005115Y002520D02*
X004775Y002520D01*
X004888Y002406D01*
X004775Y002293D01*
X005115Y002293D01*
X005115Y002161D02*
X005115Y002047D01*
X005115Y002104D02*
X004775Y002104D01*
X004775Y002047D02*
X004775Y002161D01*
X004831Y001906D02*
X004775Y001849D01*
X004775Y001736D01*
X004831Y001679D01*
X004888Y001679D01*
X004945Y001736D01*
X004945Y001849D01*
X005002Y001906D01*
X005058Y001906D01*
X005115Y001849D01*
X005115Y001736D01*
X005058Y001679D01*
X004595Y001949D02*
X004595Y001349D01*
X004593Y001332D01*
X004589Y001315D01*
X004582Y001299D01*
X004572Y001285D01*
X004559Y001272D01*
X004545Y001262D01*
X004529Y001255D01*
X004512Y001251D01*
X004495Y001249D01*
X002795Y001249D01*
X002778Y001251D01*
X002761Y001255D01*
X002745Y001262D01*
X002731Y001272D01*
X002718Y001285D01*
X002708Y001299D01*
X002701Y001315D01*
X002697Y001332D01*
X002695Y001349D01*
X002695Y001949D01*
X002697Y001966D01*
X002701Y001983D01*
X002708Y001999D01*
X002718Y002013D01*
X002731Y002026D01*
X002745Y002036D01*
X002761Y002043D01*
X002778Y002047D01*
X002795Y002049D01*
X004495Y002049D01*
X004512Y002047D01*
X004529Y002043D01*
X004545Y002036D01*
X004559Y002026D01*
X004572Y002013D01*
X004582Y001999D01*
X004589Y001983D01*
X004593Y001966D01*
X004595Y001949D01*
X003689Y001088D02*
X003689Y001031D01*
X003462Y000804D01*
X003689Y000804D01*
X003689Y001088D02*
X003632Y001144D01*
X003518Y001144D01*
X003462Y001088D01*
X003320Y001144D02*
X003207Y001144D01*
X003263Y001144D02*
X003263Y000861D01*
X003207Y000804D01*
X003150Y000804D01*
X003093Y000861D01*
X002952Y000861D02*
X002895Y000804D01*
X002782Y000804D01*
X002725Y000861D01*
X002782Y000974D02*
X002895Y000974D01*
X002952Y000918D01*
X002952Y000861D01*
X002782Y000974D02*
X002725Y001031D01*
X002725Y001088D01*
X002782Y001144D01*
X002895Y001144D01*
X002952Y001088D01*
X002490Y001429D02*
X002150Y001656D01*
X002150Y001429D02*
X002490Y001656D01*
X002490Y001797D02*
X002490Y001968D01*
X002433Y002024D01*
X002377Y002024D01*
X002320Y001968D01*
X002320Y001797D01*
X002490Y001797D02*
X002150Y001797D01*
X002150Y001968D01*
X002206Y002024D01*
X002263Y002024D01*
X002320Y001968D01*
X002320Y002166D02*
X002320Y002279D01*
X002150Y002166D02*
X002490Y002166D01*
X002490Y002393D01*
X002490Y002534D02*
X002490Y002761D01*
X002320Y002647D02*
X002320Y002534D01*
X002150Y002534D02*
X002490Y002534D01*
X002150Y002534D02*
X002150Y002761D01*
X002150Y002393D02*
X002150Y002166D01*
X006313Y003029D02*
X006313Y003369D01*
X006484Y003369D01*
X006540Y003313D01*
X006540Y003199D01*
X006484Y003143D01*
X006313Y003143D01*
X006427Y003143D02*
X006540Y003029D01*
X006682Y003029D02*
X006909Y003256D01*
X006909Y003313D01*
X006852Y003369D01*
X006738Y003369D01*
X006682Y003313D01*
X006682Y003029D02*
X006909Y003029D01*
X007327Y002369D02*
X007327Y002029D01*
X007554Y002029D01*
X007695Y002029D02*
X007695Y002369D01*
X007922Y002369D01*
X008063Y002369D02*
X008234Y002369D01*
X008290Y002313D01*
X008290Y002086D01*
X008234Y002029D01*
X008063Y002029D01*
X008063Y002369D01*
X007809Y002199D02*
X007695Y002199D01*
X007695Y002029D02*
X007922Y002029D01*
X008432Y002029D02*
X008659Y002256D01*
X008659Y002313D01*
X008602Y002369D01*
X008488Y002369D01*
X008432Y002313D01*
X008432Y002029D02*
X008659Y002029D01*
X008813Y001869D02*
X009040Y001869D01*
X008927Y001869D02*
X008927Y001529D01*
X009182Y001529D02*
X009409Y001869D01*
X009182Y001869D02*
X009409Y001529D01*
X008659Y001029D02*
X008432Y001029D01*
X008545Y001029D02*
X008545Y001369D01*
X008432Y001256D01*
X008290Y001313D02*
X008290Y001086D01*
X008234Y001029D01*
X008063Y001029D01*
X008063Y001369D01*
X008234Y001369D01*
X008290Y001313D01*
X007922Y001369D02*
X007695Y001369D01*
X007695Y001029D01*
X007922Y001029D01*
X007809Y001199D02*
X007695Y001199D01*
X007554Y001029D02*
X007327Y001029D01*
X007327Y001369D01*
X006795Y001244D02*
X006795Y000904D01*
X006682Y000904D02*
X006909Y000904D01*
X006682Y001131D02*
X006795Y001244D01*
X006540Y001188D02*
X006540Y001074D01*
X006484Y001018D01*
X006313Y001018D01*
X006427Y001018D02*
X006540Y000904D01*
X006313Y000904D02*
X006313Y001244D01*
X006484Y001244D01*
X006540Y001188D01*
X007857Y003054D02*
X007970Y003054D01*
X008027Y003111D01*
X008168Y003111D02*
X008225Y003054D01*
X008338Y003054D01*
X008395Y003111D01*
X008395Y003224D01*
X008338Y003281D01*
X008282Y003281D01*
X008168Y003224D01*
X008168Y003394D01*
X008395Y003394D01*
X008027Y003338D02*
X007970Y003394D01*
X007857Y003394D01*
X007800Y003338D01*
X007800Y003111D01*
X007857Y003054D01*
X008813Y002869D02*
X008813Y002529D01*
X008813Y002643D02*
X008984Y002643D01*
X009040Y002699D01*
X009040Y002813D01*
X008984Y002869D01*
X008813Y002869D01*
X008927Y002643D02*
X009040Y002529D01*
X009182Y002529D02*
X009409Y002869D01*
X009182Y002869D02*
X009409Y002529D01*
X008338Y004929D02*
X008225Y004929D01*
X008168Y004986D01*
X008027Y004986D02*
X007970Y004929D01*
X007857Y004929D01*
X007800Y004986D01*
X007800Y005213D01*
X007857Y005269D01*
X007970Y005269D01*
X008027Y005213D01*
X008168Y005213D02*
X008225Y005269D01*
X008338Y005269D01*
X008395Y005213D01*
X008395Y005156D01*
X008338Y005099D01*
X008395Y005043D01*
X008395Y004986D01*
X008338Y004929D01*
X008338Y005099D02*
X008282Y005099D01*
D12*
X010566Y008905D02*
X007417Y011464D01*
X003677Y011464D01*
X000724Y008905D01*
X000724Y000637D01*
X010566Y000637D01*
X010566Y008905D01*
X007102Y009527D02*
X007102Y011496D01*
X004188Y011496D01*
X004188Y009527D01*
X005054Y009527D01*
X006236Y009527D02*
X007102Y009527D01*
D13*
X006669Y007657D02*
X004621Y007657D01*
X004621Y003641D01*
X006669Y003641D01*
X006669Y007657D01*
D14*
X006285Y003996D03*
D15*
X008086Y002797D03*
X008086Y002501D03*
X008086Y001797D03*
X008086Y001501D03*
D16*
X008086Y001649D03*
X008086Y002649D03*
M02*
