G75*
G70*
%OFA0B0*%
%FSLAX24Y24*%
%IPPOS*%
%LPD*%
%AMOC8*
5,1,8,0,0,1.08239X$1,22.5*
%
%ADD10C,0.0000*%
%ADD11C,0.0560*%
%ADD12R,0.0560X0.0560*%
%ADD13C,0.0594*%
%ADD14C,0.0120*%
%ADD15C,0.0080*%
%ADD16C,0.0357*%
%ADD17C,0.0100*%
D10*
X000645Y000524D02*
X000645Y009019D01*
X003520Y011524D01*
X007770Y011524D01*
X010645Y009019D01*
X010645Y000524D01*
X000645Y000524D01*
X004750Y009803D02*
X004752Y009823D01*
X004758Y009843D01*
X004767Y009861D01*
X004780Y009878D01*
X004795Y009891D01*
X004813Y009901D01*
X004833Y009908D01*
X004853Y009911D01*
X004873Y009910D01*
X004893Y009905D01*
X004912Y009897D01*
X004929Y009885D01*
X004943Y009870D01*
X004954Y009852D01*
X004962Y009833D01*
X004966Y009813D01*
X004966Y009793D01*
X004962Y009773D01*
X004954Y009754D01*
X004943Y009736D01*
X004929Y009721D01*
X004912Y009709D01*
X004893Y009701D01*
X004873Y009696D01*
X004853Y009695D01*
X004833Y009698D01*
X004813Y009705D01*
X004795Y009715D01*
X004780Y009728D01*
X004767Y009745D01*
X004758Y009763D01*
X004752Y009783D01*
X004750Y009803D01*
X006324Y009803D02*
X006326Y009823D01*
X006332Y009843D01*
X006341Y009861D01*
X006354Y009878D01*
X006369Y009891D01*
X006387Y009901D01*
X006407Y009908D01*
X006427Y009911D01*
X006447Y009910D01*
X006467Y009905D01*
X006486Y009897D01*
X006503Y009885D01*
X006517Y009870D01*
X006528Y009852D01*
X006536Y009833D01*
X006540Y009813D01*
X006540Y009793D01*
X006536Y009773D01*
X006528Y009754D01*
X006517Y009736D01*
X006503Y009721D01*
X006486Y009709D01*
X006467Y009701D01*
X006447Y009696D01*
X006427Y009695D01*
X006407Y009698D01*
X006387Y009705D01*
X006369Y009715D01*
X006354Y009728D01*
X006341Y009745D01*
X006332Y009763D01*
X006326Y009783D01*
X006324Y009803D01*
D11*
X009976Y008314D03*
X009976Y007527D03*
X009976Y006740D03*
X009976Y005952D03*
X009976Y005165D03*
X009976Y004377D03*
X009976Y003590D03*
X009976Y002803D03*
X009976Y002015D03*
X009976Y001228D03*
X001314Y001228D03*
X001314Y002015D03*
X001314Y002803D03*
X001314Y003590D03*
X001314Y004377D03*
X001314Y005165D03*
X001314Y005952D03*
X001314Y006740D03*
X001314Y007527D03*
D12*
X001314Y008314D03*
D13*
X004533Y010649D03*
X006757Y010649D03*
D14*
X006845Y009449D02*
X006725Y009329D01*
X006845Y009449D02*
X007085Y009449D01*
X007205Y009329D01*
X007205Y009449D01*
X007575Y009449D01*
X007695Y009329D01*
X007695Y009079D01*
X007575Y008959D01*
X007455Y008959D01*
X007695Y008709D01*
X007455Y008959D02*
X007205Y008959D01*
X007205Y009329D01*
X006965Y009079D02*
X006715Y009079D01*
X006715Y008839D01*
X006835Y008709D01*
X007085Y008709D01*
X007205Y008829D01*
X007205Y008709D01*
X007205Y008829D02*
X007205Y008959D01*
X006345Y008709D02*
X005855Y009189D01*
X005855Y009309D01*
X005855Y009319D02*
X005975Y009439D01*
X006215Y009439D01*
X006345Y009309D01*
X006345Y008709D02*
X005855Y008709D01*
X005545Y008829D02*
X005425Y008709D01*
X005185Y008709D01*
X005065Y008829D01*
X005065Y009309D01*
X005185Y009429D01*
X005425Y009429D01*
X005545Y009309D01*
X005545Y008829D01*
X005075Y009309D01*
X004755Y009187D02*
X004513Y009429D01*
X004513Y009422D02*
X004513Y008717D01*
X004273Y008709D02*
X004758Y008709D01*
X003963Y009079D02*
X003605Y009454D01*
X003605Y008709D01*
X003473Y009079D02*
X003963Y009079D01*
D15*
X004143Y009076D02*
X004143Y009005D01*
X004141Y009003D01*
X004141Y009000D01*
X004088Y008950D01*
X004037Y008899D01*
X004035Y008899D01*
X004033Y008897D01*
X003960Y008899D01*
X003785Y008899D01*
X003785Y008635D01*
X003680Y008529D01*
X003530Y008529D01*
X003425Y008635D01*
X003425Y008899D01*
X003398Y008899D01*
X003293Y009005D01*
X003293Y009154D01*
X003398Y009259D01*
X003425Y009259D01*
X003425Y009382D01*
X003423Y009384D01*
X003425Y009457D01*
X003425Y009529D01*
X003427Y009530D01*
X003427Y009533D01*
X003480Y009584D01*
X003530Y009634D01*
X003533Y009634D01*
X003535Y009636D01*
X003608Y009634D01*
X003680Y009634D01*
X003681Y009632D01*
X003684Y009632D01*
X003735Y009579D01*
X003785Y009529D01*
X003785Y009526D01*
X004092Y009204D01*
X004143Y009154D01*
X004143Y009151D01*
X004144Y009149D01*
X004143Y009076D01*
X004143Y009085D02*
X004333Y009085D01*
X004333Y009007D02*
X004143Y009007D01*
X004066Y008928D02*
X004333Y008928D01*
X004333Y008889D02*
X004198Y008889D01*
X004093Y008784D01*
X004093Y008635D01*
X004198Y008529D01*
X004832Y008529D01*
X004938Y008635D01*
X004938Y008702D01*
X004990Y008649D01*
X005110Y008529D01*
X005260Y008529D01*
X005500Y008529D01*
X005605Y008635D01*
X005671Y008701D01*
X005675Y008705D01*
X005675Y008635D01*
X005780Y008529D01*
X006272Y008529D01*
X006272Y008528D01*
X006345Y008529D01*
X006420Y008529D01*
X006420Y008530D01*
X006421Y008530D01*
X006473Y008582D01*
X006525Y008635D01*
X006525Y008636D01*
X006526Y008636D01*
X006525Y008709D01*
X006525Y008784D01*
X006524Y008784D01*
X006524Y008785D01*
X006472Y008837D01*
X006420Y008889D01*
X006418Y008889D01*
X006045Y009255D01*
X006050Y009259D01*
X006140Y009259D01*
X006270Y009129D01*
X006420Y009129D01*
X006525Y009235D01*
X006525Y009384D01*
X006395Y009514D01*
X006334Y009575D01*
X006383Y009554D01*
X006482Y009554D01*
X006573Y009592D01*
X006643Y009662D01*
X006681Y009753D01*
X006681Y009852D01*
X006643Y009943D01*
X006573Y010013D01*
X006482Y010051D01*
X006383Y010051D01*
X006292Y010013D01*
X006222Y009943D01*
X006184Y009852D01*
X006184Y009753D01*
X006222Y009662D01*
X006265Y009619D01*
X006050Y009619D01*
X005900Y009619D01*
X005695Y009414D01*
X005500Y009609D01*
X005350Y009609D01*
X005110Y009609D01*
X005005Y009504D01*
X004885Y009384D01*
X004885Y009311D01*
X004587Y009609D01*
X004438Y009609D01*
X004333Y009504D01*
X004333Y009496D01*
X004333Y008889D01*
X004159Y008850D02*
X003785Y008850D01*
X003785Y008771D02*
X004093Y008771D01*
X004093Y008693D02*
X003785Y008693D01*
X003765Y008614D02*
X004113Y008614D01*
X004192Y008536D02*
X003686Y008536D01*
X003524Y008536D02*
X001714Y008536D01*
X001714Y008614D02*
X003446Y008614D01*
X003425Y008693D02*
X001666Y008693D01*
X001644Y008714D02*
X000985Y008714D01*
X000914Y008644D01*
X000914Y007985D01*
X000985Y007914D01*
X001204Y007914D01*
X001088Y007866D01*
X000975Y007754D01*
X000914Y007607D01*
X000914Y007447D01*
X000975Y007300D01*
X001088Y007188D01*
X001220Y007133D01*
X001088Y007079D01*
X000975Y006966D01*
X000914Y006819D01*
X000914Y006660D01*
X000975Y006513D01*
X001088Y006401D01*
X001220Y006346D01*
X001088Y006291D01*
X000975Y006179D01*
X000914Y006032D01*
X000914Y005873D01*
X000975Y005726D01*
X001088Y005613D01*
X001220Y005559D01*
X001088Y005504D01*
X000975Y005391D01*
X000914Y005244D01*
X000914Y005085D01*
X000975Y004938D01*
X001088Y004826D01*
X001220Y004771D01*
X001088Y004716D01*
X000975Y004604D01*
X000914Y004457D01*
X000914Y004298D01*
X000975Y004151D01*
X001088Y004038D01*
X001220Y003984D01*
X001088Y003929D01*
X000975Y003817D01*
X000914Y003670D01*
X000914Y003510D01*
X000975Y003363D01*
X001088Y003251D01*
X001220Y003196D01*
X001088Y003142D01*
X000975Y003029D01*
X000914Y002882D01*
X000914Y002723D01*
X000975Y002576D01*
X001088Y002464D01*
X001220Y002409D01*
X001088Y002354D01*
X000975Y002242D01*
X000914Y002095D01*
X000914Y001936D01*
X000975Y001789D01*
X001088Y001676D01*
X001196Y001631D01*
X001153Y001617D01*
X001094Y001587D01*
X001041Y001548D01*
X000994Y001501D01*
X000955Y001448D01*
X000925Y001389D01*
X000905Y001326D01*
X000894Y001261D01*
X000894Y001257D01*
X001285Y001257D01*
X001285Y001199D01*
X000894Y001199D01*
X000894Y001195D01*
X000905Y001129D01*
X000925Y001067D01*
X000955Y001008D01*
X000994Y000954D01*
X001041Y000907D01*
X001094Y000869D01*
X001153Y000839D01*
X001216Y000818D01*
X001281Y000808D01*
X001285Y000808D01*
X001285Y001199D01*
X001343Y001199D01*
X001343Y000808D01*
X001347Y000808D01*
X001413Y000818D01*
X001476Y000839D01*
X001534Y000869D01*
X001588Y000907D01*
X001635Y000954D01*
X001674Y001008D01*
X001704Y001067D01*
X001724Y001129D01*
X001734Y001195D01*
X001734Y001199D01*
X001343Y001199D01*
X001343Y001257D01*
X001734Y001257D01*
X001734Y001261D01*
X001724Y001326D01*
X001704Y001389D01*
X001674Y001448D01*
X001635Y001501D01*
X001588Y001548D01*
X001534Y001587D01*
X001476Y001617D01*
X001432Y001631D01*
X001541Y001676D01*
X001653Y001789D01*
X001714Y001936D01*
X001714Y002095D01*
X002459Y002095D01*
X002475Y002079D02*
X002575Y001979D01*
X005075Y001979D01*
X005100Y001954D01*
X005100Y001901D01*
X005017Y001818D01*
X004972Y001708D01*
X004972Y001590D01*
X005017Y001480D01*
X005101Y001396D01*
X005211Y001351D01*
X005329Y001351D01*
X005439Y001396D01*
X005523Y001480D01*
X005568Y001590D01*
X005568Y001708D01*
X005523Y001818D01*
X005440Y001901D01*
X005440Y001954D01*
X005440Y002094D01*
X005315Y002219D01*
X005215Y002319D01*
X002715Y002319D01*
X002690Y002344D01*
X002690Y002397D01*
X002773Y002480D01*
X002818Y002590D01*
X002818Y002708D01*
X002773Y002818D01*
X002689Y002902D01*
X002579Y002947D01*
X002462Y002947D01*
X001940Y003469D01*
X001940Y006469D01*
X001840Y006569D01*
X001714Y006695D01*
X001714Y006819D01*
X001653Y006966D01*
X001541Y007079D01*
X001409Y007133D01*
X001541Y007188D01*
X001653Y007300D01*
X001714Y007447D01*
X001714Y007607D01*
X001653Y007754D01*
X001541Y007866D01*
X001424Y007914D01*
X001644Y007914D01*
X001714Y007985D01*
X001714Y008644D01*
X001644Y008714D01*
X001714Y008457D02*
X009602Y008457D01*
X009576Y008394D02*
X009637Y008541D01*
X009749Y008654D01*
X009896Y008714D01*
X010055Y008714D01*
X010202Y008654D01*
X010315Y008541D01*
X010376Y008394D01*
X010376Y008235D01*
X010315Y008088D01*
X010202Y007975D01*
X010070Y007921D01*
X010202Y007866D01*
X010315Y007754D01*
X010376Y007607D01*
X010376Y007447D01*
X010315Y007300D01*
X010202Y007188D01*
X010070Y007133D01*
X010202Y007079D01*
X010315Y006966D01*
X010376Y006819D01*
X010376Y006660D01*
X010315Y006513D01*
X010202Y006401D01*
X010070Y006346D01*
X010202Y006291D01*
X010315Y006179D01*
X010376Y006032D01*
X010376Y005873D01*
X010315Y005726D01*
X010202Y005613D01*
X010070Y005559D01*
X010202Y005504D01*
X010315Y005391D01*
X010376Y005244D01*
X010376Y005085D01*
X010315Y004938D01*
X010202Y004826D01*
X010070Y004771D01*
X010202Y004716D01*
X010315Y004604D01*
X010376Y004457D01*
X010376Y004298D01*
X010315Y004151D01*
X010202Y004038D01*
X010070Y003984D01*
X010202Y003929D01*
X010315Y003817D01*
X010376Y003670D01*
X010376Y003510D01*
X010315Y003363D01*
X010202Y003251D01*
X010070Y003196D01*
X010202Y003142D01*
X010315Y003029D01*
X010376Y002882D01*
X010376Y002723D01*
X010315Y002576D01*
X010202Y002464D01*
X010070Y002409D01*
X010202Y002354D01*
X010315Y002242D01*
X010376Y002095D01*
X010505Y002095D01*
X010505Y002174D02*
X010343Y002174D01*
X010376Y002095D02*
X010376Y001936D01*
X010315Y001789D01*
X010202Y001676D01*
X010070Y001621D01*
X010202Y001567D01*
X010315Y001454D01*
X010376Y001307D01*
X010376Y001148D01*
X010315Y001001D01*
X010202Y000889D01*
X010055Y000828D01*
X009896Y000828D01*
X009749Y000889D01*
X009637Y001001D01*
X009576Y001148D01*
X009576Y001307D01*
X009637Y001454D01*
X009749Y001567D01*
X009881Y001621D01*
X009749Y001676D01*
X009637Y001789D01*
X009576Y001936D01*
X009576Y002095D01*
X009193Y002095D01*
X009193Y002090D02*
X009193Y002208D01*
X009148Y002318D01*
X009065Y002401D01*
X009065Y006829D01*
X009065Y006969D01*
X008068Y007966D01*
X008068Y008083D01*
X008023Y008193D01*
X007939Y008277D01*
X007829Y008322D01*
X007711Y008322D01*
X007601Y008277D01*
X007517Y008193D01*
X007472Y008083D01*
X007472Y007966D01*
X005700Y006194D01*
X003647Y006194D01*
X003564Y006277D01*
X003454Y006322D01*
X003336Y006322D01*
X003226Y006277D01*
X003142Y006193D01*
X003097Y006083D01*
X003097Y005965D01*
X003142Y005855D01*
X003226Y005771D01*
X003336Y005726D01*
X003454Y005726D01*
X003564Y005771D01*
X003647Y005854D01*
X005700Y005854D01*
X005840Y005854D01*
X007712Y007726D01*
X007828Y007726D01*
X008725Y006829D01*
X008725Y002401D01*
X008642Y002318D01*
X008597Y002208D01*
X008597Y002090D01*
X008642Y001980D01*
X008726Y001896D01*
X008836Y001851D01*
X008954Y001851D01*
X009064Y001896D01*
X009148Y001980D01*
X009193Y002090D01*
X009163Y002016D02*
X009576Y002016D01*
X009576Y001938D02*
X009106Y001938D01*
X008975Y001859D02*
X009607Y001859D01*
X009644Y001781D02*
X006315Y001781D01*
X006315Y001859D02*
X008815Y001859D01*
X008684Y001938D02*
X006315Y001938D01*
X006315Y002016D02*
X008627Y002016D01*
X008597Y002095D02*
X006315Y002095D01*
X006315Y002174D02*
X008597Y002174D01*
X008615Y002252D02*
X006315Y002252D01*
X006315Y002331D02*
X008655Y002331D01*
X008725Y002409D02*
X006315Y002409D01*
X006315Y002488D02*
X008725Y002488D01*
X008725Y002566D02*
X006315Y002566D01*
X006315Y002645D02*
X008725Y002645D01*
X008725Y002723D02*
X006315Y002723D01*
X006315Y002802D02*
X008725Y002802D01*
X008725Y002880D02*
X006315Y002880D01*
X006315Y002959D02*
X008725Y002959D01*
X008725Y003037D02*
X006315Y003037D01*
X006315Y003116D02*
X008725Y003116D01*
X008725Y003195D02*
X006315Y003195D01*
X006315Y003273D02*
X008725Y003273D01*
X008725Y003352D02*
X006315Y003352D01*
X006315Y003430D02*
X008725Y003430D01*
X008725Y003509D02*
X006315Y003509D01*
X006315Y003587D02*
X008725Y003587D01*
X008725Y003666D02*
X006315Y003666D01*
X006315Y003744D02*
X008725Y003744D01*
X008725Y003823D02*
X006315Y003823D01*
X006315Y003901D02*
X008725Y003901D01*
X008725Y003980D02*
X006315Y003980D01*
X006315Y004059D02*
X008725Y004059D01*
X008725Y004137D02*
X006315Y004137D01*
X006315Y004216D02*
X008725Y004216D01*
X008725Y004294D02*
X006315Y004294D01*
X006315Y004373D02*
X008725Y004373D01*
X008725Y004451D02*
X006315Y004451D01*
X006315Y004530D02*
X008725Y004530D01*
X008725Y004608D02*
X006315Y004608D01*
X006315Y004687D02*
X008725Y004687D01*
X008725Y004765D02*
X006315Y004765D01*
X006315Y004844D02*
X008725Y004844D01*
X008725Y004923D02*
X006340Y004923D01*
X006315Y004897D02*
X006398Y004980D01*
X006443Y005090D01*
X006443Y005208D01*
X006398Y005318D01*
X006314Y005402D01*
X006204Y005447D01*
X006086Y005447D01*
X005976Y005402D01*
X005892Y005318D01*
X005847Y005208D01*
X005847Y005090D01*
X005892Y004980D01*
X005975Y004897D01*
X005975Y001594D01*
X005575Y001194D01*
X004397Y001194D01*
X004314Y001277D01*
X004204Y001322D01*
X004086Y001322D01*
X003976Y001277D01*
X003892Y001193D01*
X003847Y001083D01*
X003847Y000965D01*
X003892Y000855D01*
X003976Y000771D01*
X004086Y000726D01*
X004204Y000726D01*
X004314Y000771D01*
X004397Y000854D01*
X005715Y000854D01*
X005815Y000954D01*
X006315Y001454D01*
X006315Y001594D01*
X006315Y004897D01*
X006407Y005001D02*
X008725Y005001D01*
X008725Y005080D02*
X006439Y005080D01*
X006443Y005158D02*
X008725Y005158D01*
X008725Y005237D02*
X006432Y005237D01*
X006399Y005315D02*
X008725Y005315D01*
X008725Y005394D02*
X006322Y005394D01*
X005968Y005394D02*
X001940Y005394D01*
X001940Y005472D02*
X008725Y005472D01*
X008725Y005551D02*
X001940Y005551D01*
X001940Y005629D02*
X008725Y005629D01*
X008725Y005708D02*
X001940Y005708D01*
X001940Y005786D02*
X003211Y005786D01*
X003138Y005865D02*
X001940Y005865D01*
X001940Y005944D02*
X003105Y005944D01*
X003097Y006022D02*
X001940Y006022D01*
X001940Y006101D02*
X003104Y006101D01*
X003136Y006179D02*
X001940Y006179D01*
X001940Y006258D02*
X003207Y006258D01*
X003583Y006258D02*
X005763Y006258D01*
X005842Y006336D02*
X001940Y006336D01*
X001940Y006415D02*
X005920Y006415D01*
X005999Y006493D02*
X001916Y006493D01*
X001838Y006572D02*
X006077Y006572D01*
X006156Y006650D02*
X001759Y006650D01*
X001714Y006729D02*
X006235Y006729D01*
X006313Y006808D02*
X001714Y006808D01*
X001687Y006886D02*
X006392Y006886D01*
X006470Y006965D02*
X001654Y006965D01*
X001576Y007043D02*
X006549Y007043D01*
X006627Y007122D02*
X001437Y007122D01*
X001553Y007200D02*
X006706Y007200D01*
X006784Y007279D02*
X001632Y007279D01*
X001677Y007357D02*
X006863Y007357D01*
X006941Y007436D02*
X001709Y007436D01*
X001714Y007514D02*
X007020Y007514D01*
X007099Y007593D02*
X001714Y007593D01*
X001687Y007672D02*
X007177Y007672D01*
X007256Y007750D02*
X001655Y007750D01*
X001578Y007829D02*
X007334Y007829D01*
X007413Y007907D02*
X001442Y007907D01*
X001187Y007907D02*
X000785Y007907D01*
X000785Y007829D02*
X001050Y007829D01*
X000974Y007750D02*
X000785Y007750D01*
X000785Y007672D02*
X000941Y007672D01*
X000914Y007593D02*
X000785Y007593D01*
X000785Y007514D02*
X000914Y007514D01*
X000919Y007436D02*
X000785Y007436D01*
X000785Y007357D02*
X000952Y007357D01*
X000997Y007279D02*
X000785Y007279D01*
X000785Y007200D02*
X001075Y007200D01*
X001192Y007122D02*
X000785Y007122D01*
X000785Y007043D02*
X001052Y007043D01*
X000975Y006965D02*
X000785Y006965D01*
X000785Y006886D02*
X000942Y006886D01*
X000914Y006808D02*
X000785Y006808D01*
X000785Y006729D02*
X000914Y006729D01*
X000918Y006650D02*
X000785Y006650D01*
X000785Y006572D02*
X000951Y006572D01*
X000995Y006493D02*
X000785Y006493D01*
X000785Y006415D02*
X001073Y006415D01*
X001196Y006336D02*
X000785Y006336D01*
X000785Y006258D02*
X001054Y006258D01*
X000976Y006179D02*
X000785Y006179D01*
X000785Y006101D02*
X000943Y006101D01*
X000914Y006022D02*
X000785Y006022D01*
X000785Y005944D02*
X000914Y005944D01*
X000917Y005865D02*
X000785Y005865D01*
X000785Y005786D02*
X000950Y005786D01*
X000993Y005708D02*
X000785Y005708D01*
X000785Y005629D02*
X001071Y005629D01*
X001201Y005551D02*
X000785Y005551D01*
X000785Y005472D02*
X001056Y005472D01*
X000978Y005394D02*
X000785Y005394D01*
X000785Y005315D02*
X000944Y005315D01*
X000914Y005237D02*
X000785Y005237D01*
X000785Y005158D02*
X000914Y005158D01*
X000917Y005080D02*
X000785Y005080D01*
X000785Y005001D02*
X000949Y005001D01*
X000991Y004923D02*
X000785Y004923D01*
X000785Y004844D02*
X001069Y004844D01*
X001058Y004687D02*
X000785Y004687D01*
X000785Y004765D02*
X001206Y004765D01*
X000980Y004608D02*
X000785Y004608D01*
X000785Y004530D02*
X000945Y004530D01*
X000914Y004451D02*
X000785Y004451D01*
X000785Y004373D02*
X000914Y004373D01*
X000916Y004294D02*
X000785Y004294D01*
X000785Y004216D02*
X000948Y004216D01*
X000989Y004137D02*
X000785Y004137D01*
X000785Y004059D02*
X001068Y004059D01*
X001211Y003980D02*
X000785Y003980D01*
X000785Y003901D02*
X001060Y003901D01*
X000982Y003823D02*
X000785Y003823D01*
X000785Y003744D02*
X000945Y003744D01*
X000914Y003666D02*
X000785Y003666D01*
X000785Y003587D02*
X000914Y003587D01*
X000915Y003509D02*
X000785Y003509D01*
X000785Y003430D02*
X000948Y003430D01*
X000987Y003352D02*
X000785Y003352D01*
X000785Y003273D02*
X001066Y003273D01*
X001062Y003116D02*
X000785Y003116D01*
X000785Y003037D02*
X000984Y003037D01*
X000946Y002959D02*
X000785Y002959D01*
X000785Y002880D02*
X000914Y002880D01*
X000914Y002802D02*
X000785Y002802D01*
X000785Y002723D02*
X000914Y002723D01*
X000947Y002645D02*
X000785Y002645D01*
X000785Y002566D02*
X000985Y002566D01*
X001064Y002488D02*
X000785Y002488D01*
X000785Y002409D02*
X001219Y002409D01*
X001064Y002331D02*
X000785Y002331D01*
X000785Y002252D02*
X000985Y002252D01*
X000947Y002174D02*
X000785Y002174D01*
X000785Y002095D02*
X000914Y002095D01*
X000914Y002016D02*
X000785Y002016D01*
X000785Y001938D02*
X000914Y001938D01*
X000946Y001859D02*
X000785Y001859D01*
X000785Y001781D02*
X000983Y001781D01*
X001062Y001702D02*
X000785Y001702D01*
X000785Y001624D02*
X001174Y001624D01*
X001038Y001545D02*
X000785Y001545D01*
X000785Y001467D02*
X000969Y001467D01*
X000925Y001388D02*
X000785Y001388D01*
X000785Y001310D02*
X000902Y001310D01*
X000785Y001231D02*
X001285Y001231D01*
X001343Y001231D02*
X003930Y001231D01*
X003875Y001152D02*
X001728Y001152D01*
X001706Y001074D02*
X003847Y001074D01*
X003847Y000995D02*
X001665Y000995D01*
X001597Y000917D02*
X003866Y000917D01*
X003909Y000838D02*
X001474Y000838D01*
X001343Y000838D02*
X001285Y000838D01*
X001285Y000917D02*
X001343Y000917D01*
X001343Y000995D02*
X001285Y000995D01*
X001285Y001074D02*
X001343Y001074D01*
X001343Y001152D02*
X001285Y001152D01*
X001154Y000838D02*
X000785Y000838D01*
X000785Y000760D02*
X004003Y000760D01*
X004287Y000760D02*
X010505Y000760D01*
X010505Y000838D02*
X010080Y000838D01*
X010230Y000917D02*
X010505Y000917D01*
X010505Y000995D02*
X010309Y000995D01*
X010345Y001074D02*
X010505Y001074D01*
X010505Y001152D02*
X010376Y001152D01*
X010376Y001231D02*
X010505Y001231D01*
X010505Y001310D02*
X010375Y001310D01*
X010342Y001388D02*
X010505Y001388D01*
X010505Y001467D02*
X010303Y001467D01*
X010224Y001545D02*
X010505Y001545D01*
X010505Y001624D02*
X010076Y001624D01*
X010228Y001702D02*
X010505Y001702D01*
X010505Y001781D02*
X010307Y001781D01*
X010344Y001859D02*
X010505Y001859D01*
X010505Y001938D02*
X010376Y001938D01*
X010376Y002016D02*
X010505Y002016D01*
X010505Y002252D02*
X010305Y002252D01*
X010226Y002331D02*
X010505Y002331D01*
X010505Y002409D02*
X010071Y002409D01*
X010226Y002488D02*
X010505Y002488D01*
X010505Y002566D02*
X010305Y002566D01*
X010343Y002645D02*
X010505Y002645D01*
X010505Y002723D02*
X010376Y002723D01*
X010376Y002802D02*
X010505Y002802D01*
X010505Y002880D02*
X010376Y002880D01*
X010344Y002959D02*
X010505Y002959D01*
X010505Y003037D02*
X010307Y003037D01*
X010228Y003116D02*
X010505Y003116D01*
X010505Y003195D02*
X010075Y003195D01*
X010224Y003273D02*
X010505Y003273D01*
X010505Y003352D02*
X010303Y003352D01*
X010342Y003430D02*
X010505Y003430D01*
X010505Y003509D02*
X010375Y003509D01*
X010376Y003587D02*
X010505Y003587D01*
X010505Y003666D02*
X010376Y003666D01*
X010345Y003744D02*
X010505Y003744D01*
X010505Y003823D02*
X010309Y003823D01*
X010230Y003901D02*
X010505Y003901D01*
X010505Y003980D02*
X010079Y003980D01*
X010223Y004059D02*
X010505Y004059D01*
X010505Y004137D02*
X010301Y004137D01*
X010342Y004216D02*
X010505Y004216D01*
X010505Y004294D02*
X010374Y004294D01*
X010376Y004373D02*
X010505Y004373D01*
X010505Y004451D02*
X010376Y004451D01*
X010346Y004530D02*
X010505Y004530D01*
X010505Y004608D02*
X010310Y004608D01*
X010232Y004687D02*
X010505Y004687D01*
X010505Y004765D02*
X010084Y004765D01*
X010221Y004844D02*
X010505Y004844D01*
X010505Y004923D02*
X010299Y004923D01*
X010341Y005001D02*
X010505Y005001D01*
X010505Y005080D02*
X010373Y005080D01*
X010376Y005158D02*
X010505Y005158D01*
X010505Y005237D02*
X010376Y005237D01*
X010346Y005315D02*
X010505Y005315D01*
X010505Y005394D02*
X010312Y005394D01*
X010234Y005472D02*
X010505Y005472D01*
X010505Y005551D02*
X010089Y005551D01*
X010219Y005629D02*
X010505Y005629D01*
X010505Y005708D02*
X010297Y005708D01*
X010340Y005786D02*
X010505Y005786D01*
X010505Y005865D02*
X010373Y005865D01*
X010376Y005944D02*
X010505Y005944D01*
X010505Y006022D02*
X010376Y006022D01*
X010347Y006101D02*
X010505Y006101D01*
X010505Y006179D02*
X010314Y006179D01*
X010236Y006258D02*
X010505Y006258D01*
X010505Y006336D02*
X010094Y006336D01*
X010217Y006415D02*
X010505Y006415D01*
X010505Y006493D02*
X010295Y006493D01*
X010339Y006572D02*
X010505Y006572D01*
X010505Y006650D02*
X010372Y006650D01*
X010376Y006729D02*
X010505Y006729D01*
X010505Y006808D02*
X010376Y006808D01*
X010348Y006886D02*
X010505Y006886D01*
X010505Y006965D02*
X010315Y006965D01*
X010238Y007043D02*
X010505Y007043D01*
X010505Y007122D02*
X010098Y007122D01*
X010215Y007200D02*
X010505Y007200D01*
X010505Y007279D02*
X010293Y007279D01*
X010338Y007357D02*
X010505Y007357D01*
X010505Y007436D02*
X010371Y007436D01*
X010376Y007514D02*
X010505Y007514D01*
X010505Y007593D02*
X010376Y007593D01*
X010349Y007672D02*
X010505Y007672D01*
X010505Y007750D02*
X010316Y007750D01*
X010240Y007829D02*
X010505Y007829D01*
X010505Y007907D02*
X010103Y007907D01*
X010213Y007986D02*
X010505Y007986D01*
X010505Y008064D02*
X010291Y008064D01*
X010338Y008143D02*
X010505Y008143D01*
X010505Y008221D02*
X010370Y008221D01*
X010376Y008300D02*
X010505Y008300D01*
X010505Y008378D02*
X010376Y008378D01*
X010350Y008457D02*
X010505Y008457D01*
X010505Y008536D02*
X010317Y008536D01*
X010242Y008614D02*
X010505Y008614D01*
X010505Y008693D02*
X010108Y008693D01*
X009844Y008693D02*
X007875Y008693D01*
X007873Y008631D02*
X007876Y008780D01*
X007766Y008895D01*
X007875Y009005D01*
X007875Y009154D01*
X007875Y009404D01*
X007770Y009509D01*
X007650Y009629D01*
X007500Y009629D01*
X007130Y009629D01*
X006920Y009629D01*
X006770Y009629D01*
X006545Y009404D01*
X006545Y009255D01*
X006591Y009209D01*
X006535Y009154D01*
X006535Y008843D01*
X006532Y008772D01*
X006535Y008769D01*
X006535Y008765D01*
X006585Y008715D01*
X006655Y008639D01*
X006655Y008635D01*
X006705Y008585D01*
X006753Y008532D01*
X006758Y008532D01*
X006760Y008529D01*
X006831Y008529D01*
X006902Y008526D01*
X006905Y008529D01*
X007010Y008529D01*
X007130Y008529D01*
X007280Y008529D01*
X007385Y008635D01*
X007385Y008772D01*
X007617Y008531D01*
X007766Y008528D01*
X007873Y008631D01*
X007856Y008614D02*
X009710Y008614D01*
X009634Y008536D02*
X007774Y008536D01*
X007612Y008536D02*
X007286Y008536D01*
X007365Y008614D02*
X007537Y008614D01*
X007461Y008693D02*
X007385Y008693D01*
X007385Y008771D02*
X007386Y008771D01*
X007810Y008850D02*
X010505Y008850D01*
X010505Y008928D02*
X007799Y008928D01*
X007875Y009007D02*
X010446Y009007D01*
X010505Y008955D02*
X010505Y000664D01*
X000785Y000664D01*
X000785Y008955D01*
X003572Y011384D01*
X007718Y011384D01*
X010505Y008955D01*
X010505Y008771D02*
X007876Y008771D01*
X007875Y009085D02*
X010356Y009085D01*
X010266Y009164D02*
X007875Y009164D01*
X007875Y009242D02*
X010176Y009242D01*
X010086Y009321D02*
X007875Y009321D01*
X007875Y009399D02*
X009995Y009399D01*
X009905Y009478D02*
X007801Y009478D01*
X007722Y009557D02*
X009815Y009557D01*
X009725Y009635D02*
X006616Y009635D01*
X006664Y009714D02*
X009635Y009714D01*
X009545Y009792D02*
X006681Y009792D01*
X006673Y009871D02*
X009455Y009871D01*
X009364Y009949D02*
X006637Y009949D01*
X006537Y010028D02*
X009274Y010028D01*
X009184Y010106D02*
X002106Y010106D01*
X002016Y010028D02*
X004753Y010028D01*
X004717Y010013D02*
X004808Y010051D01*
X004907Y010051D01*
X004998Y010013D01*
X005068Y009943D01*
X005106Y009852D01*
X005106Y009753D01*
X005068Y009662D01*
X004998Y009592D01*
X004907Y009554D01*
X004808Y009554D01*
X004717Y009592D01*
X004647Y009662D01*
X004609Y009753D01*
X004609Y009852D01*
X004647Y009943D01*
X004717Y010013D01*
X004653Y009949D02*
X001926Y009949D01*
X001835Y009871D02*
X004617Y009871D01*
X004609Y009792D02*
X001745Y009792D01*
X001655Y009714D02*
X004626Y009714D01*
X004674Y009635D02*
X003563Y009635D01*
X003534Y009635D02*
X001565Y009635D01*
X001475Y009557D02*
X003452Y009557D01*
X003425Y009478D02*
X001385Y009478D01*
X001295Y009399D02*
X003424Y009399D01*
X003425Y009321D02*
X001204Y009321D01*
X001114Y009242D02*
X003381Y009242D01*
X003303Y009164D02*
X001024Y009164D01*
X000934Y009085D02*
X003293Y009085D01*
X003293Y009007D02*
X000844Y009007D01*
X000785Y008928D02*
X003369Y008928D01*
X003425Y008850D02*
X000785Y008850D01*
X000785Y008771D02*
X003425Y008771D01*
X003981Y009321D02*
X004333Y009321D01*
X004333Y009399D02*
X003906Y009399D01*
X003831Y009478D02*
X004333Y009478D01*
X004333Y009496D02*
X004333Y009496D01*
X004386Y009557D02*
X003757Y009557D01*
X004056Y009242D02*
X004333Y009242D01*
X004333Y009164D02*
X004132Y009164D01*
X004640Y009557D02*
X004803Y009557D01*
X004912Y009557D02*
X005058Y009557D01*
X005041Y009635D02*
X006249Y009635D01*
X006201Y009714D02*
X005089Y009714D01*
X005106Y009792D02*
X006184Y009792D01*
X006192Y009871D02*
X005098Y009871D01*
X005062Y009949D02*
X006228Y009949D01*
X006327Y010028D02*
X004963Y010028D01*
X004762Y010275D02*
X004701Y010244D01*
X004635Y010223D01*
X004573Y010213D01*
X004573Y010609D01*
X004573Y010689D01*
X004969Y010689D01*
X004959Y010751D01*
X004938Y010817D01*
X004906Y010878D01*
X004866Y010934D01*
X004817Y010982D01*
X004762Y011023D01*
X004701Y011054D01*
X004635Y011075D01*
X004573Y011085D01*
X004573Y010689D01*
X004493Y010689D01*
X004493Y011085D01*
X004431Y011075D01*
X004365Y011054D01*
X004304Y011023D01*
X004248Y010982D01*
X004200Y010934D01*
X004159Y010878D01*
X004128Y010817D01*
X004107Y010751D01*
X004097Y010689D01*
X004493Y010689D01*
X004493Y010609D01*
X004573Y010609D01*
X004969Y010609D01*
X004959Y010547D01*
X004938Y010481D01*
X004906Y010420D01*
X004866Y010364D01*
X004817Y010316D01*
X004762Y010275D01*
X004738Y010263D02*
X006552Y010263D01*
X006528Y010275D02*
X006590Y010244D01*
X006655Y010223D01*
X006717Y010213D01*
X006717Y010609D01*
X006321Y010609D01*
X006331Y010547D01*
X006352Y010481D01*
X006384Y010420D01*
X006424Y010364D01*
X006473Y010316D01*
X006528Y010275D01*
X006446Y010342D02*
X004844Y010342D01*
X004907Y010421D02*
X006383Y010421D01*
X006347Y010499D02*
X004943Y010499D01*
X004964Y010578D02*
X006326Y010578D01*
X006321Y010689D02*
X006717Y010689D01*
X006717Y010609D01*
X006797Y010609D01*
X006797Y010213D01*
X006860Y010223D01*
X006925Y010244D01*
X006986Y010275D01*
X007042Y010316D01*
X007090Y010364D01*
X007131Y010420D01*
X007162Y010481D01*
X007183Y010547D01*
X007193Y010609D01*
X006797Y010609D01*
X006797Y010689D01*
X006717Y010689D01*
X006717Y011085D01*
X006655Y011075D01*
X006590Y011054D01*
X006528Y011023D01*
X006473Y010982D01*
X006424Y010934D01*
X006384Y010878D01*
X006352Y010817D01*
X006331Y010751D01*
X006321Y010689D01*
X006329Y010735D02*
X004962Y010735D01*
X004939Y010813D02*
X006351Y010813D01*
X006394Y010892D02*
X004896Y010892D01*
X004829Y010970D02*
X006461Y010970D01*
X006580Y011049D02*
X004710Y011049D01*
X004573Y011049D02*
X004493Y011049D01*
X004493Y010970D02*
X004573Y010970D01*
X004573Y010892D02*
X004493Y010892D01*
X004493Y010813D02*
X004573Y010813D01*
X004573Y010735D02*
X004493Y010735D01*
X004493Y010656D02*
X002737Y010656D01*
X002647Y010578D02*
X004102Y010578D01*
X004097Y010609D02*
X004107Y010547D01*
X004128Y010481D01*
X004159Y010420D01*
X004200Y010364D01*
X004248Y010316D01*
X004304Y010275D01*
X004365Y010244D01*
X004431Y010223D01*
X004493Y010213D01*
X004493Y010609D01*
X004097Y010609D01*
X004122Y010499D02*
X002557Y010499D01*
X002467Y010421D02*
X004159Y010421D01*
X004222Y010342D02*
X002376Y010342D01*
X002286Y010263D02*
X004327Y010263D01*
X004493Y010263D02*
X004573Y010263D01*
X004573Y010342D02*
X004493Y010342D01*
X004493Y010421D02*
X004573Y010421D01*
X004573Y010499D02*
X004493Y010499D01*
X004493Y010578D02*
X004573Y010578D01*
X004573Y010656D02*
X006717Y010656D01*
X006717Y010578D02*
X006797Y010578D01*
X006797Y010656D02*
X008553Y010656D01*
X008643Y010578D02*
X007188Y010578D01*
X007168Y010499D02*
X008733Y010499D01*
X008823Y010421D02*
X007131Y010421D01*
X007068Y010342D02*
X008914Y010342D01*
X009004Y010263D02*
X006963Y010263D01*
X006797Y010263D02*
X006717Y010263D01*
X006717Y010342D02*
X006797Y010342D01*
X006797Y010421D02*
X006717Y010421D01*
X006717Y010499D02*
X006797Y010499D01*
X006797Y010689D02*
X007193Y010689D01*
X007183Y010751D01*
X007162Y010817D01*
X007131Y010878D01*
X007090Y010934D01*
X007042Y010982D01*
X006986Y011023D01*
X006925Y011054D01*
X006860Y011075D01*
X006797Y011085D01*
X006797Y010689D01*
X006797Y010735D02*
X006717Y010735D01*
X006717Y010813D02*
X006797Y010813D01*
X006797Y010892D02*
X006717Y010892D01*
X006717Y010970D02*
X006797Y010970D01*
X006797Y011049D02*
X006717Y011049D01*
X006935Y011049D02*
X008102Y011049D01*
X008012Y011127D02*
X003278Y011127D01*
X003188Y011049D02*
X004355Y011049D01*
X004236Y010970D02*
X003098Y010970D01*
X003007Y010892D02*
X004169Y010892D01*
X004127Y010813D02*
X002917Y010813D01*
X002827Y010735D02*
X004104Y010735D01*
X003548Y011363D02*
X007742Y011363D01*
X007832Y011285D02*
X003458Y011285D01*
X003368Y011206D02*
X007922Y011206D01*
X008192Y010970D02*
X007054Y010970D01*
X007121Y010892D02*
X008283Y010892D01*
X008373Y010813D02*
X007163Y010813D01*
X007186Y010735D02*
X008463Y010735D01*
X009094Y010185D02*
X002196Y010185D01*
X000963Y008693D02*
X000785Y008693D01*
X000785Y008614D02*
X000914Y008614D01*
X000914Y008536D02*
X000785Y008536D01*
X000785Y008457D02*
X000914Y008457D01*
X000914Y008378D02*
X000785Y008378D01*
X000785Y008300D02*
X000914Y008300D01*
X000914Y008221D02*
X000785Y008221D01*
X000785Y008143D02*
X000914Y008143D01*
X000914Y008064D02*
X000785Y008064D01*
X000785Y007986D02*
X000914Y007986D01*
X001714Y007986D02*
X007472Y007986D01*
X007472Y008064D02*
X001714Y008064D01*
X001714Y008143D02*
X007496Y008143D01*
X007545Y008221D02*
X001714Y008221D01*
X001714Y008300D02*
X007656Y008300D01*
X007884Y008300D02*
X009576Y008300D01*
X009576Y008235D02*
X009637Y008088D01*
X009749Y007975D01*
X009881Y007921D01*
X009749Y007866D01*
X009637Y007754D01*
X009576Y007607D01*
X009576Y007447D01*
X009637Y007300D01*
X009749Y007188D01*
X009881Y007133D01*
X009749Y007079D01*
X009637Y006966D01*
X009576Y006819D01*
X009576Y006660D01*
X009637Y006513D01*
X009749Y006401D01*
X009881Y006346D01*
X009749Y006291D01*
X009637Y006179D01*
X009065Y006179D01*
X009065Y006101D02*
X009604Y006101D01*
X009576Y006032D02*
X009576Y005873D01*
X009637Y005726D01*
X009749Y005613D01*
X009881Y005559D01*
X009749Y005504D01*
X009637Y005391D01*
X009576Y005244D01*
X009576Y005085D01*
X009637Y004938D01*
X009749Y004826D01*
X009881Y004771D01*
X009749Y004716D01*
X009637Y004604D01*
X009576Y004457D01*
X009576Y004298D01*
X009637Y004151D01*
X009749Y004038D01*
X009881Y003984D01*
X009749Y003929D01*
X009637Y003817D01*
X009576Y003670D01*
X009576Y003510D01*
X009637Y003363D01*
X009749Y003251D01*
X009881Y003196D01*
X009749Y003142D01*
X009637Y003029D01*
X009576Y002882D01*
X009576Y002723D01*
X009637Y002576D01*
X009749Y002464D01*
X009881Y002409D01*
X009749Y002354D01*
X009637Y002242D01*
X009576Y002095D01*
X009608Y002174D02*
X009193Y002174D01*
X009175Y002252D02*
X009647Y002252D01*
X009725Y002331D02*
X009136Y002331D01*
X009065Y002409D02*
X009880Y002409D01*
X009725Y002488D02*
X009065Y002488D01*
X009065Y002566D02*
X009646Y002566D01*
X009608Y002645D02*
X009065Y002645D01*
X009065Y002723D02*
X009576Y002723D01*
X009576Y002802D02*
X009065Y002802D01*
X009065Y002880D02*
X009576Y002880D01*
X009608Y002959D02*
X009065Y002959D01*
X009065Y003037D02*
X009645Y003037D01*
X009723Y003116D02*
X009065Y003116D01*
X009065Y003195D02*
X009877Y003195D01*
X009727Y003273D02*
X009065Y003273D01*
X009065Y003352D02*
X009648Y003352D01*
X009609Y003430D02*
X009065Y003430D01*
X009065Y003509D02*
X009576Y003509D01*
X009576Y003587D02*
X009065Y003587D01*
X009065Y003666D02*
X009576Y003666D01*
X009607Y003744D02*
X009065Y003744D01*
X009065Y003823D02*
X009643Y003823D01*
X009721Y003901D02*
X009065Y003901D01*
X009065Y003980D02*
X009872Y003980D01*
X009729Y004059D02*
X009065Y004059D01*
X009065Y004137D02*
X009650Y004137D01*
X009610Y004216D02*
X009065Y004216D01*
X009065Y004294D02*
X009577Y004294D01*
X009576Y004373D02*
X009065Y004373D01*
X009065Y004451D02*
X009576Y004451D01*
X009606Y004530D02*
X009065Y004530D01*
X009065Y004608D02*
X009641Y004608D01*
X009720Y004687D02*
X009065Y004687D01*
X009065Y004765D02*
X009867Y004765D01*
X009731Y004844D02*
X009065Y004844D01*
X009065Y004923D02*
X009652Y004923D01*
X009611Y005001D02*
X009065Y005001D01*
X009065Y005080D02*
X009578Y005080D01*
X009576Y005158D02*
X009065Y005158D01*
X009065Y005237D02*
X009576Y005237D01*
X009605Y005315D02*
X009065Y005315D01*
X009065Y005394D02*
X009639Y005394D01*
X009718Y005472D02*
X009065Y005472D01*
X009065Y005551D02*
X009863Y005551D01*
X009733Y005629D02*
X009065Y005629D01*
X009065Y005708D02*
X009654Y005708D01*
X009611Y005786D02*
X009065Y005786D01*
X009065Y005865D02*
X009579Y005865D01*
X009576Y005944D02*
X009065Y005944D01*
X009065Y006022D02*
X009576Y006022D01*
X009576Y006032D02*
X009637Y006179D01*
X009716Y006258D02*
X009065Y006258D01*
X009065Y006336D02*
X009858Y006336D01*
X009735Y006415D02*
X009065Y006415D01*
X009065Y006493D02*
X009656Y006493D01*
X009612Y006572D02*
X009065Y006572D01*
X009065Y006650D02*
X009580Y006650D01*
X009576Y006729D02*
X009065Y006729D01*
X009065Y006808D02*
X009576Y006808D01*
X009603Y006886D02*
X009065Y006886D01*
X009065Y006965D02*
X009636Y006965D01*
X009714Y007043D02*
X008991Y007043D01*
X008913Y007122D02*
X009853Y007122D01*
X009737Y007200D02*
X008834Y007200D01*
X008756Y007279D02*
X009658Y007279D01*
X009613Y007357D02*
X008677Y007357D01*
X008599Y007436D02*
X009581Y007436D01*
X009576Y007514D02*
X008520Y007514D01*
X008441Y007593D02*
X009576Y007593D01*
X009603Y007672D02*
X008363Y007672D01*
X008284Y007750D02*
X009635Y007750D01*
X009712Y007829D02*
X008206Y007829D01*
X008127Y007907D02*
X009848Y007907D01*
X009739Y007986D02*
X008068Y007986D01*
X008068Y008064D02*
X009660Y008064D01*
X009614Y008143D02*
X008044Y008143D01*
X007995Y008221D02*
X009581Y008221D01*
X009576Y008235D02*
X009576Y008394D01*
X009576Y008378D02*
X001714Y008378D01*
X003579Y005786D02*
X008725Y005786D01*
X008725Y005865D02*
X005851Y005865D01*
X005930Y005944D02*
X008725Y005944D01*
X008725Y006022D02*
X006008Y006022D01*
X006087Y006101D02*
X008725Y006101D01*
X008725Y006179D02*
X006166Y006179D01*
X006244Y006258D02*
X008725Y006258D01*
X008725Y006336D02*
X006323Y006336D01*
X006401Y006415D02*
X008725Y006415D01*
X008725Y006493D02*
X006480Y006493D01*
X006558Y006572D02*
X008725Y006572D01*
X008725Y006650D02*
X006637Y006650D01*
X006715Y006729D02*
X008725Y006729D01*
X008725Y006808D02*
X006794Y006808D01*
X006872Y006886D02*
X008668Y006886D01*
X008589Y006965D02*
X006951Y006965D01*
X007030Y007043D02*
X008511Y007043D01*
X008432Y007122D02*
X007108Y007122D01*
X007187Y007200D02*
X008353Y007200D01*
X008275Y007279D02*
X007265Y007279D01*
X007344Y007357D02*
X008196Y007357D01*
X008118Y007436D02*
X007422Y007436D01*
X007501Y007514D02*
X008039Y007514D01*
X007961Y007593D02*
X007579Y007593D01*
X007658Y007672D02*
X007882Y007672D01*
X006750Y008536D02*
X006427Y008536D01*
X006504Y008614D02*
X006676Y008614D01*
X006605Y008693D02*
X006525Y008693D01*
X006525Y008771D02*
X006533Y008771D01*
X006535Y008850D02*
X006459Y008850D01*
X006535Y008928D02*
X006379Y008928D01*
X006298Y009007D02*
X006535Y009007D01*
X006535Y009085D02*
X006218Y009085D01*
X006236Y009164D02*
X006138Y009164D01*
X006157Y009242D02*
X006058Y009242D01*
X005759Y009478D02*
X005631Y009478D01*
X005552Y009557D02*
X005838Y009557D01*
X006352Y009557D02*
X006378Y009557D01*
X006431Y009478D02*
X006619Y009478D01*
X006545Y009399D02*
X006509Y009399D01*
X006525Y009321D02*
X006545Y009321D01*
X006557Y009242D02*
X006525Y009242D01*
X006545Y009164D02*
X006454Y009164D01*
X006487Y009557D02*
X006698Y009557D01*
X005675Y008693D02*
X005663Y008693D01*
X005605Y008635D02*
X005605Y008635D01*
X005585Y008614D02*
X005696Y008614D01*
X005774Y008536D02*
X005506Y008536D01*
X005104Y008536D02*
X004839Y008536D01*
X004917Y008614D02*
X005026Y008614D01*
X004947Y008693D02*
X004938Y008693D01*
X004885Y009321D02*
X004875Y009321D01*
X004901Y009399D02*
X004797Y009399D01*
X004718Y009478D02*
X004979Y009478D01*
X005891Y005315D02*
X001940Y005315D01*
X001940Y005237D02*
X005858Y005237D01*
X005847Y005158D02*
X001940Y005158D01*
X001940Y005080D02*
X005851Y005080D01*
X005883Y005001D02*
X001940Y005001D01*
X001940Y004923D02*
X005950Y004923D01*
X005975Y004844D02*
X001940Y004844D01*
X001940Y004765D02*
X005975Y004765D01*
X005975Y004687D02*
X001940Y004687D01*
X001940Y004608D02*
X005975Y004608D01*
X005975Y004530D02*
X001940Y004530D01*
X001940Y004451D02*
X005975Y004451D01*
X005975Y004373D02*
X001940Y004373D01*
X001940Y004294D02*
X005975Y004294D01*
X005975Y004216D02*
X001940Y004216D01*
X001940Y004137D02*
X005975Y004137D01*
X005975Y004059D02*
X001940Y004059D01*
X001940Y003980D02*
X005975Y003980D01*
X005975Y003901D02*
X005815Y003901D01*
X005814Y003902D02*
X005704Y003947D01*
X005586Y003947D01*
X005476Y003902D01*
X005393Y003819D01*
X004090Y003819D01*
X003950Y003819D01*
X003703Y003572D01*
X003586Y003572D01*
X003476Y003527D01*
X003392Y003443D01*
X003347Y003333D01*
X003347Y003215D01*
X003392Y003105D01*
X003476Y003021D01*
X003586Y002976D01*
X003704Y002976D01*
X003814Y003021D01*
X003898Y003105D01*
X003943Y003215D01*
X003943Y003332D01*
X004090Y003479D01*
X005393Y003479D01*
X005476Y003396D01*
X005586Y003351D01*
X005704Y003351D01*
X005814Y003396D01*
X005898Y003480D01*
X005943Y003590D01*
X005943Y003708D01*
X005898Y003818D01*
X005814Y003902D01*
X005893Y003823D02*
X005975Y003823D01*
X005975Y003744D02*
X005929Y003744D01*
X005943Y003666D02*
X005975Y003666D01*
X005975Y003587D02*
X005942Y003587D01*
X005910Y003509D02*
X005975Y003509D01*
X005975Y003430D02*
X005848Y003430D01*
X005975Y003352D02*
X005707Y003352D01*
X005583Y003352D02*
X003963Y003352D01*
X003943Y003273D02*
X005975Y003273D01*
X005975Y003195D02*
X003935Y003195D01*
X003903Y003116D02*
X005975Y003116D01*
X005975Y003037D02*
X003830Y003037D01*
X003460Y003037D02*
X002372Y003037D01*
X002451Y002959D02*
X005975Y002959D01*
X005975Y002880D02*
X002711Y002880D01*
X002780Y002802D02*
X005975Y002802D01*
X005975Y002723D02*
X002812Y002723D01*
X002818Y002645D02*
X005975Y002645D01*
X005975Y002566D02*
X002809Y002566D01*
X002776Y002488D02*
X005975Y002488D01*
X005975Y002409D02*
X002702Y002409D01*
X002704Y002331D02*
X005975Y002331D01*
X005975Y002252D02*
X005282Y002252D01*
X005361Y002174D02*
X005975Y002174D01*
X005975Y002095D02*
X005440Y002095D01*
X005440Y002016D02*
X005975Y002016D01*
X005975Y001938D02*
X005440Y001938D01*
X005482Y001859D02*
X005975Y001859D01*
X005975Y001781D02*
X005538Y001781D01*
X005568Y001702D02*
X005975Y001702D01*
X005975Y001624D02*
X005568Y001624D01*
X005550Y001545D02*
X005926Y001545D01*
X005847Y001467D02*
X005510Y001467D01*
X005420Y001388D02*
X005769Y001388D01*
X005690Y001310D02*
X004236Y001310D01*
X004360Y001231D02*
X005612Y001231D01*
X005857Y000995D02*
X009643Y000995D01*
X009607Y001074D02*
X005935Y001074D01*
X006014Y001152D02*
X009576Y001152D01*
X009576Y001231D02*
X006092Y001231D01*
X006171Y001310D02*
X009577Y001310D01*
X009609Y001388D02*
X006249Y001388D01*
X006315Y001467D02*
X009649Y001467D01*
X009727Y001545D02*
X006315Y001545D01*
X006315Y001624D02*
X009876Y001624D01*
X009723Y001702D02*
X006315Y001702D01*
X005778Y000917D02*
X009721Y000917D01*
X009871Y000838D02*
X004381Y000838D01*
X004054Y001310D02*
X001727Y001310D01*
X001704Y001388D02*
X005120Y001388D01*
X005030Y001467D02*
X001660Y001467D01*
X001591Y001545D02*
X004990Y001545D01*
X004972Y001624D02*
X001455Y001624D01*
X001567Y001702D02*
X004972Y001702D01*
X005002Y001781D02*
X001646Y001781D01*
X001683Y001859D02*
X005058Y001859D01*
X005100Y001938D02*
X001714Y001938D01*
X001714Y002016D02*
X002537Y002016D01*
X002475Y002079D02*
X002350Y002204D01*
X002350Y002344D01*
X002350Y002397D01*
X002267Y002480D01*
X002222Y002590D01*
X002222Y002707D01*
X001609Y003319D01*
X001541Y003251D01*
X001409Y003196D01*
X001541Y003142D01*
X001653Y003029D01*
X001714Y002882D01*
X001714Y002723D01*
X001653Y002576D01*
X001541Y002464D01*
X001409Y002409D01*
X001541Y002354D01*
X001653Y002242D01*
X001714Y002095D01*
X001682Y002174D02*
X002380Y002174D01*
X002350Y002252D02*
X001643Y002252D01*
X001565Y002331D02*
X002350Y002331D01*
X002338Y002409D02*
X001410Y002409D01*
X001565Y002488D02*
X002264Y002488D01*
X002231Y002566D02*
X001644Y002566D01*
X001682Y002645D02*
X002222Y002645D01*
X002205Y002723D02*
X001714Y002723D01*
X001714Y002802D02*
X002127Y002802D01*
X002048Y002880D02*
X001714Y002880D01*
X001683Y002959D02*
X001970Y002959D01*
X001891Y003037D02*
X001645Y003037D01*
X001567Y003116D02*
X001813Y003116D01*
X001734Y003195D02*
X001413Y003195D01*
X001563Y003273D02*
X001656Y003273D01*
X001979Y003430D02*
X003387Y003430D01*
X003354Y003352D02*
X002058Y003352D01*
X002136Y003273D02*
X003347Y003273D01*
X003355Y003195D02*
X002215Y003195D01*
X002293Y003116D02*
X003387Y003116D01*
X003458Y003509D02*
X001940Y003509D01*
X001940Y003587D02*
X003718Y003587D01*
X003796Y003666D02*
X001940Y003666D01*
X001940Y003744D02*
X003875Y003744D01*
X004042Y003430D02*
X005442Y003430D01*
X005397Y003823D02*
X001940Y003823D01*
X001940Y003901D02*
X005475Y003901D01*
X001215Y003195D02*
X000785Y003195D01*
X000785Y001152D02*
X000901Y001152D01*
X000923Y001074D02*
X000785Y001074D01*
X000785Y000995D02*
X000964Y000995D01*
X001031Y000917D02*
X000785Y000917D01*
X000785Y000681D02*
X010505Y000681D01*
D16*
X009145Y001149D03*
X008895Y002149D03*
X007270Y003399D03*
X005645Y003649D03*
X006145Y005149D03*
X008145Y005649D03*
X008145Y006149D03*
X007770Y008024D03*
X003395Y006024D03*
X003145Y004649D03*
X003145Y004149D03*
X003645Y003274D03*
X002520Y002649D03*
X004145Y001024D03*
X005270Y001649D03*
X001770Y007149D03*
D17*
X001429Y006740D02*
X001314Y006740D01*
X001429Y006740D02*
X001770Y006399D01*
X001770Y003399D01*
X002520Y002649D01*
X002520Y002274D01*
X002645Y002149D01*
X005145Y002149D01*
X005270Y002024D01*
X005270Y001649D01*
X005645Y001024D02*
X004145Y001024D01*
X005645Y001024D02*
X006145Y001524D01*
X006145Y005149D01*
X005770Y006024D02*
X007770Y008024D01*
X008895Y006899D01*
X008895Y002149D01*
X005645Y003649D02*
X004020Y003649D01*
X003645Y003274D01*
X003395Y006024D02*
X005770Y006024D01*
M02*
