G75*
G70*
%OFA0B0*%
%FSLAX24Y24*%
%IPPOS*%
%LPD*%
%AMOC8*
5,1,8,0,0,1.08239X$1,22.5*
%
%ADD10C,0.0000*%
%ADD11C,0.0560*%
%ADD12R,0.0560X0.0560*%
%ADD13R,0.0591X0.0157*%
%ADD14R,0.0157X0.0886*%
%ADD15C,0.0594*%
%ADD16R,0.0748X0.0748*%
%ADD17R,0.0433X0.0394*%
%ADD18R,0.0512X0.0591*%
%ADD19R,0.0460X0.0630*%
%ADD20R,0.0315X0.0315*%
%ADD21R,0.0394X0.0433*%
%ADD22C,0.0100*%
%ADD23C,0.0080*%
%ADD24C,0.0357*%
D10*
X000645Y000524D02*
X000645Y009019D01*
X003520Y011524D01*
X007770Y011524D01*
X010645Y009019D01*
X010645Y000524D01*
X000645Y000524D01*
X004750Y009803D02*
X004752Y009823D01*
X004758Y009843D01*
X004767Y009861D01*
X004780Y009878D01*
X004795Y009891D01*
X004813Y009901D01*
X004833Y009908D01*
X004853Y009911D01*
X004873Y009910D01*
X004893Y009905D01*
X004912Y009897D01*
X004929Y009885D01*
X004943Y009870D01*
X004954Y009852D01*
X004962Y009833D01*
X004966Y009813D01*
X004966Y009793D01*
X004962Y009773D01*
X004954Y009754D01*
X004943Y009736D01*
X004929Y009721D01*
X004912Y009709D01*
X004893Y009701D01*
X004873Y009696D01*
X004853Y009695D01*
X004833Y009698D01*
X004813Y009705D01*
X004795Y009715D01*
X004780Y009728D01*
X004767Y009745D01*
X004758Y009763D01*
X004752Y009783D01*
X004750Y009803D01*
X006324Y009803D02*
X006326Y009823D01*
X006332Y009843D01*
X006341Y009861D01*
X006354Y009878D01*
X006369Y009891D01*
X006387Y009901D01*
X006407Y009908D01*
X006427Y009911D01*
X006447Y009910D01*
X006467Y009905D01*
X006486Y009897D01*
X006503Y009885D01*
X006517Y009870D01*
X006528Y009852D01*
X006536Y009833D01*
X006540Y009813D01*
X006540Y009793D01*
X006536Y009773D01*
X006528Y009754D01*
X006517Y009736D01*
X006503Y009721D01*
X006486Y009709D01*
X006467Y009701D01*
X006447Y009696D01*
X006427Y009695D01*
X006407Y009698D01*
X006387Y009705D01*
X006369Y009715D01*
X006354Y009728D01*
X006341Y009745D01*
X006332Y009763D01*
X006326Y009783D01*
X006324Y009803D01*
D11*
X009976Y008314D03*
X009976Y007527D03*
X009976Y006740D03*
X009976Y005952D03*
X009976Y005165D03*
X009976Y004377D03*
X009976Y003590D03*
X009976Y002803D03*
X009976Y002015D03*
X009976Y001228D03*
X001314Y001228D03*
X001314Y002015D03*
X001314Y002803D03*
X001314Y003590D03*
X001314Y004377D03*
X001314Y005165D03*
X001314Y005952D03*
X001314Y006740D03*
X001314Y007527D03*
D12*
X001314Y008314D03*
D13*
X004218Y007312D03*
X004218Y007057D03*
X004218Y006801D03*
X004218Y006545D03*
X004218Y006289D03*
X004218Y006033D03*
X004218Y005777D03*
X004218Y005521D03*
X004218Y005265D03*
X004218Y005009D03*
X004218Y004753D03*
X004218Y004498D03*
X004218Y004242D03*
X004218Y003986D03*
X007072Y003986D03*
X007072Y004242D03*
X007072Y004498D03*
X007072Y004753D03*
X007072Y005009D03*
X007072Y005265D03*
X007072Y005521D03*
X007072Y005777D03*
X007072Y006033D03*
X007072Y006289D03*
X007072Y006545D03*
X007072Y006801D03*
X007072Y007057D03*
X007072Y007312D03*
D14*
X006157Y009498D03*
X005901Y009498D03*
X005645Y009498D03*
X005389Y009498D03*
X005133Y009498D03*
D15*
X004533Y010649D03*
X006757Y010649D03*
D16*
X005645Y010649D03*
D17*
X003355Y006649D03*
X002685Y006649D03*
X002685Y005524D03*
X003355Y005524D03*
X007810Y004649D03*
X008480Y004649D03*
X008480Y003649D03*
X007810Y003649D03*
D18*
X007771Y008649D03*
X008519Y008649D03*
D19*
X004245Y002649D03*
X003645Y002649D03*
X003045Y002649D03*
X003045Y001649D03*
X003645Y001649D03*
X004245Y001649D03*
D20*
X007850Y001649D03*
X008440Y001649D03*
X008440Y002649D03*
X007850Y002649D03*
D21*
X006980Y002649D03*
X006310Y002649D03*
X006310Y001649D03*
X006980Y001649D03*
D22*
X007850Y001649D01*
X008440Y001649D02*
X008770Y001649D01*
X008895Y001774D01*
X008895Y002149D01*
X008895Y002524D01*
X008770Y002649D01*
X008440Y002649D01*
X007850Y002649D02*
X006980Y002649D01*
X006310Y002649D02*
X005895Y002649D01*
X005145Y003399D01*
X005145Y005149D01*
X004773Y005521D01*
X004218Y005521D01*
X004218Y005265D02*
X004654Y005265D01*
X004895Y005024D01*
X004895Y002649D01*
X005895Y001649D01*
X006310Y001649D01*
X005270Y001649D02*
X004245Y001649D01*
X004145Y002149D02*
X003145Y002149D01*
X003045Y002049D01*
X003045Y001649D01*
X002520Y001649D01*
X002145Y002024D01*
X002145Y007274D01*
X001892Y007527D01*
X001314Y007527D01*
X003355Y006649D02*
X003395Y006609D01*
X003395Y006024D01*
X003404Y006033D01*
X004218Y006033D01*
X004218Y006801D02*
X005493Y006801D01*
X005645Y006649D01*
X005645Y004899D01*
X005791Y004753D01*
X007072Y004753D01*
X007706Y004753D01*
X007810Y004649D01*
X007428Y004242D02*
X007645Y004024D01*
X007645Y003814D01*
X007810Y003649D01*
X007428Y004242D02*
X007072Y004242D01*
X007072Y003986D02*
X005982Y003986D01*
X005645Y003649D01*
X006285Y005009D02*
X006145Y005149D01*
X006285Y005009D02*
X007072Y005009D01*
X008480Y003649D02*
X009020Y003649D01*
X009270Y003899D01*
X009270Y005649D01*
X009573Y005952D01*
X009976Y005952D01*
X007770Y008024D02*
X007771Y008025D01*
X007771Y008649D01*
X006395Y008649D01*
X006157Y008887D01*
X006157Y009498D01*
X005901Y009498D02*
X005901Y007530D01*
X005428Y007057D01*
X004218Y007057D01*
X004218Y007312D02*
X005308Y007312D01*
X005645Y007649D01*
X005645Y009498D01*
X003395Y006024D02*
X003395Y005564D01*
X003355Y005524D01*
X003645Y003274D02*
X003645Y002649D01*
X004145Y002149D02*
X004245Y002249D01*
X004245Y002649D01*
X003645Y001649D02*
X003645Y001149D01*
X003770Y001024D01*
X004145Y001024D01*
X003045Y002649D02*
X002520Y002649D01*
D23*
X002315Y002866D02*
X002315Y007344D01*
X002215Y007444D01*
X001962Y007697D01*
X001822Y007697D01*
X001677Y007697D01*
X001653Y007754D01*
X001541Y007866D01*
X001424Y007914D01*
X001644Y007914D01*
X001714Y007985D01*
X001714Y008644D01*
X001644Y008714D01*
X000985Y008714D01*
X000914Y008644D01*
X000914Y007985D01*
X000985Y007914D01*
X001204Y007914D01*
X001088Y007866D01*
X000975Y007754D01*
X000914Y007607D01*
X000914Y007447D01*
X000975Y007300D01*
X001088Y007188D01*
X001220Y007133D01*
X001088Y007079D01*
X000975Y006966D01*
X000914Y006819D01*
X000914Y006660D01*
X000975Y006513D01*
X001088Y006401D01*
X001220Y006346D01*
X001088Y006291D01*
X000975Y006179D01*
X000914Y006032D01*
X000914Y005873D01*
X000975Y005726D01*
X001088Y005613D01*
X001220Y005559D01*
X001088Y005504D01*
X000975Y005391D01*
X000914Y005244D01*
X000914Y005085D01*
X000975Y004938D01*
X001088Y004826D01*
X001220Y004771D01*
X001088Y004716D01*
X000975Y004604D01*
X000914Y004457D01*
X000914Y004298D01*
X000975Y004151D01*
X001088Y004038D01*
X001220Y003984D01*
X001088Y003929D01*
X000975Y003817D01*
X000914Y003670D01*
X000914Y003510D01*
X000975Y003363D01*
X001088Y003251D01*
X001220Y003196D01*
X001088Y003142D01*
X000975Y003029D01*
X000914Y002882D01*
X000914Y002723D01*
X000975Y002576D01*
X001088Y002464D01*
X001220Y002409D01*
X001088Y002354D01*
X000975Y002242D01*
X000914Y002095D01*
X000914Y001936D01*
X000975Y001789D01*
X001088Y001676D01*
X001196Y001631D01*
X001153Y001617D01*
X001094Y001587D01*
X001041Y001548D01*
X000994Y001501D01*
X000955Y001448D01*
X000925Y001389D01*
X000905Y001326D01*
X000894Y001261D01*
X000894Y001257D01*
X001285Y001257D01*
X001285Y001199D01*
X000894Y001199D01*
X000894Y001195D01*
X000905Y001129D01*
X000925Y001067D01*
X000955Y001008D01*
X000994Y000954D01*
X001041Y000907D01*
X001094Y000869D01*
X001153Y000839D01*
X001216Y000818D01*
X001281Y000808D01*
X001285Y000808D01*
X001285Y001199D01*
X001343Y001199D01*
X001343Y000808D01*
X001347Y000808D01*
X001413Y000818D01*
X001476Y000839D01*
X001534Y000869D01*
X001588Y000907D01*
X001635Y000954D01*
X001674Y001008D01*
X001704Y001067D01*
X001724Y001129D01*
X001734Y001195D01*
X001734Y001199D01*
X001343Y001199D01*
X001343Y001257D01*
X001734Y001257D01*
X001734Y001261D01*
X001724Y001326D01*
X001704Y001389D01*
X001674Y001448D01*
X001635Y001501D01*
X001588Y001548D01*
X001534Y001587D01*
X001476Y001617D01*
X001432Y001631D01*
X001541Y001676D01*
X001653Y001789D01*
X001714Y001936D01*
X001714Y002095D01*
X001975Y002095D01*
X001975Y002094D02*
X001975Y001954D01*
X002350Y001579D01*
X002450Y001479D01*
X002695Y001479D01*
X002695Y001284D01*
X002765Y001214D01*
X003325Y001214D01*
X003345Y001234D01*
X003365Y001214D01*
X003475Y001214D01*
X003475Y001079D01*
X003575Y000979D01*
X003700Y000854D01*
X003840Y000854D01*
X003893Y000854D01*
X003976Y000771D01*
X004086Y000726D01*
X004204Y000726D01*
X004314Y000771D01*
X004398Y000855D01*
X004443Y000965D01*
X004443Y001083D01*
X004398Y001193D01*
X004377Y001214D01*
X004525Y001214D01*
X004595Y001284D01*
X004595Y001479D01*
X005018Y001479D01*
X005101Y001396D01*
X005211Y001351D01*
X005329Y001351D01*
X005439Y001396D01*
X005523Y001480D01*
X005568Y001590D01*
X005568Y001708D01*
X005549Y001754D01*
X005725Y001579D01*
X005825Y001479D01*
X005994Y001479D01*
X005994Y001383D01*
X006064Y001313D01*
X006557Y001313D01*
X006627Y001383D01*
X006627Y001915D01*
X006557Y001986D01*
X006064Y001986D01*
X005994Y001915D01*
X005994Y001819D01*
X005965Y001819D01*
X005065Y002719D01*
X005065Y003239D01*
X005725Y002579D01*
X005825Y002479D01*
X005994Y002479D01*
X005994Y002383D01*
X006064Y002313D01*
X006557Y002313D01*
X006627Y002383D01*
X006627Y002915D01*
X006557Y002986D01*
X006064Y002986D01*
X005994Y002915D01*
X005994Y002819D01*
X005965Y002819D01*
X005315Y003469D01*
X005315Y005219D01*
X005215Y005319D01*
X004943Y005591D01*
X004943Y005592D01*
X004843Y005691D01*
X004653Y005691D01*
X004653Y005777D01*
X004653Y005874D01*
X004644Y005910D01*
X004633Y005928D01*
X004633Y006161D01*
X004633Y006394D01*
X004644Y006412D01*
X004653Y006448D01*
X004653Y006545D01*
X004653Y006631D01*
X005423Y006631D01*
X005475Y006579D01*
X005475Y004829D01*
X005575Y004729D01*
X005720Y004583D01*
X005861Y004583D01*
X006657Y004583D01*
X006657Y004369D01*
X006657Y004156D01*
X006052Y004156D01*
X005911Y004156D01*
X005703Y003947D01*
X005586Y003947D01*
X005476Y003902D01*
X005392Y003818D01*
X005347Y003708D01*
X005347Y003590D01*
X005392Y003480D01*
X005476Y003396D01*
X005586Y003351D01*
X005704Y003351D01*
X005814Y003396D01*
X005898Y003480D01*
X005943Y003590D01*
X005943Y003707D01*
X006052Y003816D01*
X006698Y003816D01*
X006727Y003787D01*
X007417Y003787D01*
X007474Y003844D01*
X007474Y003403D01*
X007544Y003332D01*
X008077Y003332D01*
X008145Y003401D01*
X008213Y003332D01*
X008746Y003332D01*
X008816Y003403D01*
X008816Y003479D01*
X008950Y003479D01*
X009090Y003479D01*
X009340Y003729D01*
X009440Y003829D01*
X009440Y005579D01*
X009622Y005761D01*
X009637Y005726D01*
X009749Y005613D01*
X009881Y005559D01*
X009749Y005504D01*
X009637Y005391D01*
X009576Y005244D01*
X009576Y005085D01*
X009637Y004938D01*
X009749Y004826D01*
X009881Y004771D01*
X009749Y004716D01*
X009637Y004604D01*
X009576Y004457D01*
X009576Y004298D01*
X009637Y004151D01*
X009749Y004038D01*
X009881Y003984D01*
X009749Y003929D01*
X009637Y003817D01*
X009576Y003670D01*
X009576Y003510D01*
X009637Y003363D01*
X009749Y003251D01*
X009881Y003196D01*
X009749Y003142D01*
X009637Y003029D01*
X009576Y002882D01*
X009576Y002723D01*
X009637Y002576D01*
X009749Y002464D01*
X009881Y002409D01*
X009749Y002354D01*
X009637Y002242D01*
X009576Y002095D01*
X009193Y002095D01*
X009193Y002090D02*
X009193Y002208D01*
X009148Y002318D01*
X009065Y002401D01*
X009065Y002594D01*
X008965Y002694D01*
X008840Y002819D01*
X008718Y002819D01*
X008718Y002856D01*
X008647Y002927D01*
X008233Y002927D01*
X008163Y002856D01*
X008163Y002442D01*
X008233Y002372D01*
X008647Y002372D01*
X008718Y002442D01*
X008718Y002461D01*
X008725Y002454D01*
X008725Y002401D01*
X008642Y002318D01*
X008597Y002208D01*
X008597Y002090D01*
X008642Y001980D01*
X008725Y001897D01*
X008725Y001844D01*
X008718Y001837D01*
X008718Y001856D01*
X008647Y001927D01*
X008233Y001927D01*
X008163Y001856D01*
X008163Y001442D01*
X008233Y001372D01*
X008647Y001372D01*
X008718Y001442D01*
X008718Y001479D01*
X008840Y001479D01*
X008965Y001604D01*
X009065Y001704D01*
X009065Y001897D01*
X009148Y001980D01*
X009193Y002090D01*
X009163Y002016D02*
X009576Y002016D01*
X009576Y001938D02*
X009106Y001938D01*
X009065Y001859D02*
X009607Y001859D01*
X009637Y001789D02*
X009749Y001676D01*
X009881Y001621D01*
X009749Y001567D01*
X009637Y001454D01*
X009576Y001307D01*
X009576Y001148D01*
X009637Y001001D01*
X009749Y000889D01*
X009896Y000828D01*
X010055Y000828D01*
X010202Y000889D01*
X010315Y001001D01*
X010376Y001148D01*
X010376Y001307D01*
X010315Y001454D01*
X010202Y001567D01*
X010070Y001621D01*
X010202Y001676D01*
X010315Y001789D01*
X010376Y001936D01*
X010376Y002095D01*
X010505Y002095D01*
X010505Y002174D02*
X010343Y002174D01*
X010315Y002242D02*
X010202Y002354D01*
X010070Y002409D01*
X010202Y002464D01*
X010315Y002576D01*
X010376Y002723D01*
X010376Y002882D01*
X010315Y003029D01*
X010202Y003142D01*
X010070Y003196D01*
X010202Y003251D01*
X010315Y003363D01*
X010376Y003510D01*
X010376Y003670D01*
X010315Y003817D01*
X010202Y003929D01*
X010070Y003984D01*
X010202Y004038D01*
X010315Y004151D01*
X010376Y004298D01*
X010376Y004457D01*
X010315Y004604D01*
X010202Y004716D01*
X010070Y004771D01*
X010202Y004826D01*
X010315Y004938D01*
X010376Y005085D01*
X010376Y005244D01*
X010315Y005391D01*
X010202Y005504D01*
X010070Y005559D01*
X010202Y005613D01*
X010315Y005726D01*
X010376Y005873D01*
X010376Y006032D01*
X010315Y006179D01*
X010202Y006291D01*
X010070Y006346D01*
X010202Y006401D01*
X010315Y006513D01*
X010376Y006660D01*
X010376Y006819D01*
X010315Y006966D01*
X010202Y007079D01*
X010070Y007133D01*
X010202Y007188D01*
X010315Y007300D01*
X010376Y007447D01*
X010376Y007607D01*
X010315Y007754D01*
X010202Y007866D01*
X010070Y007921D01*
X010202Y007975D01*
X010315Y008088D01*
X010376Y008235D01*
X010376Y008394D01*
X010315Y008541D01*
X010202Y008654D01*
X010055Y008714D01*
X009896Y008714D01*
X009749Y008654D01*
X009637Y008541D01*
X009576Y008394D01*
X009576Y008235D01*
X009637Y008088D01*
X009749Y007975D01*
X009881Y007921D01*
X009749Y007866D01*
X009637Y007754D01*
X009576Y007607D01*
X009576Y007447D01*
X009637Y007300D01*
X009749Y007188D01*
X009881Y007133D01*
X009749Y007079D01*
X009637Y006966D01*
X009576Y006819D01*
X009576Y006660D01*
X009637Y006513D01*
X009749Y006401D01*
X009881Y006346D01*
X009749Y006291D01*
X009637Y006179D01*
X007487Y006179D01*
X007487Y006160D02*
X007487Y006416D01*
X007487Y006672D01*
X007487Y006928D01*
X007487Y007184D01*
X007487Y007441D01*
X007417Y007511D01*
X006727Y007511D01*
X006657Y007441D01*
X006657Y007184D01*
X006657Y006928D01*
X006657Y006672D01*
X006657Y006416D01*
X006657Y006160D01*
X006657Y005904D01*
X006657Y005672D01*
X006646Y005654D01*
X006637Y005618D01*
X006637Y005521D01*
X006637Y005424D01*
X006646Y005388D01*
X006657Y005370D01*
X006657Y005179D01*
X006443Y005179D01*
X006443Y005208D01*
X006398Y005318D01*
X006314Y005402D01*
X006204Y005447D01*
X006086Y005447D01*
X005976Y005402D01*
X005892Y005318D01*
X005847Y005208D01*
X005847Y005090D01*
X005892Y004980D01*
X005949Y004923D01*
X005861Y004923D01*
X005815Y004969D01*
X005815Y006719D01*
X005715Y006819D01*
X005573Y006962D01*
X005971Y007360D01*
X005971Y007360D01*
X006071Y007460D01*
X006071Y008733D01*
X006225Y008579D01*
X006325Y008479D01*
X007395Y008479D01*
X007395Y008304D01*
X007465Y008234D01*
X007558Y008234D01*
X007517Y008193D01*
X007472Y008083D01*
X007472Y007965D01*
X007517Y007855D01*
X007601Y007771D01*
X007711Y007726D01*
X007829Y007726D01*
X007939Y007771D01*
X008023Y007855D01*
X008068Y007965D01*
X008068Y008083D01*
X008023Y008193D01*
X007982Y008234D01*
X008077Y008234D01*
X008136Y008294D01*
X008151Y008268D01*
X008177Y008242D01*
X008209Y008223D01*
X008245Y008214D01*
X008479Y008214D01*
X008479Y008609D01*
X008559Y008609D01*
X008559Y008214D01*
X008793Y008214D01*
X008829Y008223D01*
X008861Y008242D01*
X008887Y008268D01*
X008905Y008300D01*
X009576Y008300D01*
X009576Y008378D02*
X008915Y008378D01*
X008915Y008335D02*
X008915Y008609D01*
X008559Y008609D01*
X008559Y008689D01*
X008915Y008689D01*
X008915Y008963D01*
X008905Y008998D01*
X008887Y009030D01*
X008861Y009056D01*
X008829Y009075D01*
X008793Y009084D01*
X008559Y009084D01*
X008559Y008689D01*
X008479Y008689D01*
X008479Y009084D01*
X008245Y009084D01*
X008209Y009075D01*
X008177Y009056D01*
X008151Y009030D01*
X008136Y009005D01*
X008077Y009064D01*
X007465Y009064D01*
X007395Y008994D01*
X007395Y008819D01*
X006465Y008819D01*
X006327Y008958D01*
X006327Y008976D01*
X006356Y009005D01*
X006356Y009566D01*
X006383Y009554D01*
X006482Y009554D01*
X006573Y009592D01*
X006643Y009662D01*
X006681Y009753D01*
X006681Y009852D01*
X006643Y009943D01*
X006573Y010013D01*
X006482Y010051D01*
X006383Y010051D01*
X006321Y010025D01*
X006285Y010060D01*
X006028Y010060D01*
X005772Y010060D01*
X005518Y010060D01*
X005284Y010060D01*
X005266Y010071D01*
X005230Y010080D01*
X005133Y010080D01*
X005036Y010080D01*
X005000Y010071D01*
X004969Y010052D01*
X004949Y010033D01*
X004907Y010051D01*
X004808Y010051D01*
X004717Y010013D01*
X004647Y009943D01*
X004609Y009852D01*
X004609Y009753D01*
X004647Y009662D01*
X004717Y009592D01*
X004808Y009554D01*
X004907Y009554D01*
X004914Y009557D01*
X004912Y009557D01*
X004914Y009557D02*
X004914Y009498D01*
X005133Y009498D01*
X005133Y010080D01*
X005133Y009498D01*
X005133Y009498D01*
X005133Y009497D01*
X005133Y009497D01*
X005133Y008915D01*
X005036Y008915D01*
X005000Y008924D01*
X004969Y008943D01*
X004942Y008969D01*
X004924Y009001D01*
X004914Y009036D01*
X004914Y009497D01*
X005133Y009497D01*
X005133Y008915D01*
X005230Y008915D01*
X005266Y008924D01*
X005284Y008935D01*
X005475Y008935D01*
X005475Y007719D01*
X005238Y007482D01*
X004592Y007482D01*
X004563Y007511D01*
X003873Y007511D01*
X003803Y007441D01*
X003803Y007185D01*
X003803Y006929D01*
X003803Y006696D01*
X003792Y006678D01*
X003783Y006642D01*
X003783Y006545D01*
X004217Y006545D01*
X004217Y006545D01*
X003783Y006545D01*
X003783Y006448D01*
X003792Y006412D01*
X003803Y006394D01*
X003803Y006203D01*
X003638Y006203D01*
X003565Y006276D01*
X003565Y006332D01*
X003621Y006332D01*
X003691Y006403D01*
X003691Y006896D01*
X003621Y006966D01*
X003088Y006966D01*
X003029Y006906D01*
X003014Y006932D01*
X002988Y006958D01*
X002956Y006976D01*
X002920Y006986D01*
X002725Y006986D01*
X002725Y006689D01*
X002645Y006689D01*
X002645Y006609D01*
X002329Y006609D01*
X002329Y006434D01*
X002338Y006398D01*
X002357Y006366D01*
X002383Y006340D01*
X002415Y006322D01*
X002450Y006312D01*
X002645Y006312D01*
X002645Y006609D01*
X002725Y006609D01*
X002725Y006312D01*
X002920Y006312D01*
X002956Y006322D01*
X002988Y006340D01*
X003014Y006366D01*
X003029Y006392D01*
X003088Y006332D01*
X003225Y006332D01*
X003225Y006276D01*
X003142Y006193D01*
X003097Y006083D01*
X003097Y005965D01*
X003142Y005855D01*
X003156Y005841D01*
X003088Y005841D01*
X003029Y005781D01*
X003014Y005807D01*
X002988Y005833D01*
X002956Y005851D01*
X002920Y005861D01*
X002725Y005861D01*
X002725Y005564D01*
X002645Y005564D01*
X002645Y005484D01*
X002329Y005484D01*
X002329Y005309D01*
X002338Y005273D01*
X002357Y005241D01*
X002383Y005215D01*
X002415Y005197D01*
X002450Y005187D01*
X002645Y005187D01*
X002645Y005484D01*
X002725Y005484D01*
X002725Y005187D01*
X002920Y005187D01*
X002956Y005197D01*
X002988Y005215D01*
X003014Y005241D01*
X003029Y005267D01*
X003088Y005207D01*
X003621Y005207D01*
X003691Y005278D01*
X003691Y005771D01*
X003627Y005834D01*
X003648Y005855D01*
X003651Y005863D01*
X003783Y005863D01*
X003783Y005777D01*
X003783Y005680D01*
X003792Y005644D01*
X003803Y005626D01*
X003803Y005394D01*
X003691Y005394D01*
X003691Y005472D02*
X003803Y005472D01*
X003803Y005394D02*
X003803Y005138D01*
X003803Y004904D01*
X003792Y004886D01*
X003783Y004851D01*
X003783Y004754D01*
X004217Y004754D01*
X004217Y004753D01*
X003783Y004753D01*
X003783Y004656D01*
X003791Y004625D01*
X003783Y004595D01*
X003783Y004498D01*
X004217Y004498D01*
X004217Y004497D01*
X003783Y004497D01*
X003783Y004400D01*
X003792Y004365D01*
X003803Y004347D01*
X003803Y004114D01*
X003803Y003857D01*
X003873Y003787D01*
X004563Y003787D01*
X004633Y003857D01*
X004633Y004114D01*
X004633Y004347D01*
X004644Y004365D01*
X004653Y004400D01*
X004653Y004497D01*
X004218Y004497D01*
X004218Y004498D01*
X004653Y004498D01*
X004653Y004595D01*
X004645Y004625D01*
X004653Y004656D01*
X004653Y004753D01*
X004218Y004753D01*
X004218Y004754D01*
X004653Y004754D01*
X004653Y004851D01*
X004644Y004886D01*
X004633Y004904D01*
X004633Y005046D01*
X004725Y004954D01*
X004725Y002719D01*
X004725Y002579D01*
X005375Y001928D01*
X005329Y001947D01*
X005211Y001947D01*
X005101Y001902D01*
X005018Y001819D01*
X004595Y001819D01*
X004595Y002014D01*
X004525Y002084D01*
X004320Y002084D01*
X004415Y002179D01*
X004415Y002214D01*
X004525Y002214D01*
X004595Y002284D01*
X004595Y003014D01*
X004525Y003084D01*
X003965Y003084D01*
X003945Y003064D01*
X003925Y003084D01*
X003877Y003084D01*
X003898Y003105D01*
X003943Y003215D01*
X003943Y003333D01*
X003898Y003443D01*
X003814Y003527D01*
X003704Y003572D01*
X003586Y003572D01*
X003476Y003527D01*
X003392Y003443D01*
X003347Y003333D01*
X003347Y003215D01*
X003392Y003105D01*
X003413Y003084D01*
X003365Y003084D01*
X003345Y003064D01*
X003325Y003084D01*
X002765Y003084D01*
X002695Y003014D01*
X002695Y002896D01*
X002689Y002902D01*
X002579Y002947D01*
X002461Y002947D01*
X002351Y002902D01*
X002315Y002866D01*
X002315Y002880D02*
X002329Y002880D01*
X002315Y002959D02*
X002695Y002959D01*
X002719Y003037D02*
X002315Y003037D01*
X002315Y003116D02*
X003387Y003116D01*
X003355Y003195D02*
X002315Y003195D01*
X002315Y003273D02*
X003347Y003273D01*
X003354Y003352D02*
X002315Y003352D01*
X002315Y003430D02*
X003387Y003430D01*
X003458Y003509D02*
X002315Y003509D01*
X002315Y003587D02*
X004725Y003587D01*
X004725Y003509D02*
X003832Y003509D01*
X003903Y003430D02*
X004725Y003430D01*
X004725Y003352D02*
X003936Y003352D01*
X003943Y003273D02*
X004725Y003273D01*
X004725Y003195D02*
X003935Y003195D01*
X003903Y003116D02*
X004725Y003116D01*
X004725Y003037D02*
X004571Y003037D01*
X004595Y002959D02*
X004725Y002959D01*
X004725Y002880D02*
X004595Y002880D01*
X004595Y002802D02*
X004725Y002802D01*
X004725Y002723D02*
X004595Y002723D01*
X004595Y002645D02*
X004725Y002645D01*
X004737Y002566D02*
X004595Y002566D01*
X004595Y002488D02*
X004816Y002488D01*
X004895Y002409D02*
X004595Y002409D01*
X004595Y002331D02*
X004973Y002331D01*
X005052Y002252D02*
X004563Y002252D01*
X004410Y002174D02*
X005130Y002174D01*
X005209Y002095D02*
X004331Y002095D01*
X004592Y002016D02*
X005287Y002016D01*
X005353Y001938D02*
X005366Y001938D01*
X005187Y001938D02*
X004595Y001938D01*
X004595Y001859D02*
X005058Y001859D01*
X005030Y001467D02*
X004595Y001467D01*
X004595Y001388D02*
X005120Y001388D01*
X005420Y001388D02*
X005994Y001388D01*
X005994Y001467D02*
X005510Y001467D01*
X005550Y001545D02*
X005759Y001545D01*
X005680Y001624D02*
X005568Y001624D01*
X005568Y001702D02*
X005601Y001702D01*
X005847Y001938D02*
X006016Y001938D01*
X005994Y001859D02*
X005925Y001859D01*
X005768Y002016D02*
X008627Y002016D01*
X008597Y002095D02*
X005690Y002095D01*
X005611Y002174D02*
X008597Y002174D01*
X008615Y002252D02*
X005532Y002252D01*
X005454Y002331D02*
X006046Y002331D01*
X005994Y002409D02*
X005375Y002409D01*
X005297Y002488D02*
X005816Y002488D01*
X005737Y002566D02*
X005218Y002566D01*
X005140Y002645D02*
X005659Y002645D01*
X005580Y002723D02*
X005065Y002723D01*
X005065Y002802D02*
X005502Y002802D01*
X005423Y002880D02*
X005065Y002880D01*
X005065Y002959D02*
X005345Y002959D01*
X005266Y003037D02*
X005065Y003037D01*
X005065Y003116D02*
X005188Y003116D01*
X005109Y003195D02*
X005065Y003195D01*
X005354Y003430D02*
X005442Y003430D01*
X005433Y003352D02*
X005583Y003352D01*
X005511Y003273D02*
X009727Y003273D01*
X009648Y003352D02*
X008765Y003352D01*
X008816Y003430D02*
X009609Y003430D01*
X009576Y003509D02*
X009120Y003509D01*
X009199Y003587D02*
X009576Y003587D01*
X009576Y003666D02*
X009277Y003666D01*
X009356Y003744D02*
X009607Y003744D01*
X009643Y003823D02*
X009434Y003823D01*
X009440Y003901D02*
X009721Y003901D01*
X009872Y003980D02*
X009440Y003980D01*
X009440Y004059D02*
X009729Y004059D01*
X009650Y004137D02*
X009440Y004137D01*
X009440Y004216D02*
X009610Y004216D01*
X009577Y004294D02*
X009440Y004294D01*
X009440Y004373D02*
X009576Y004373D01*
X009576Y004451D02*
X009440Y004451D01*
X009440Y004530D02*
X009606Y004530D01*
X009641Y004608D02*
X009440Y004608D01*
X009440Y004687D02*
X009720Y004687D01*
X009731Y004844D02*
X009440Y004844D01*
X009440Y004923D02*
X009652Y004923D01*
X009611Y005001D02*
X009440Y005001D01*
X009440Y005080D02*
X009578Y005080D01*
X009576Y005158D02*
X009440Y005158D01*
X009440Y005237D02*
X009576Y005237D01*
X009605Y005315D02*
X009440Y005315D01*
X009440Y005394D02*
X009639Y005394D01*
X009718Y005472D02*
X009440Y005472D01*
X009440Y005551D02*
X009863Y005551D01*
X009733Y005629D02*
X009491Y005629D01*
X009569Y005708D02*
X009654Y005708D01*
X009403Y006022D02*
X007487Y006022D01*
X007487Y005944D02*
X009324Y005944D01*
X009246Y005865D02*
X007487Y005865D01*
X007487Y005904D02*
X007487Y006160D01*
X007487Y006101D02*
X009481Y006101D01*
X009503Y006122D02*
X009200Y005819D01*
X009100Y005719D01*
X009100Y003969D01*
X008950Y003819D01*
X008816Y003819D01*
X008816Y003896D01*
X008746Y003966D01*
X008213Y003966D01*
X008145Y003897D01*
X008077Y003966D01*
X007815Y003966D01*
X007815Y004094D01*
X007715Y004194D01*
X007577Y004332D01*
X008077Y004332D01*
X008136Y004392D01*
X008151Y004366D01*
X008177Y004340D01*
X008209Y004322D01*
X008245Y004312D01*
X008440Y004312D01*
X008440Y004609D01*
X008520Y004609D01*
X008520Y004689D01*
X008836Y004689D01*
X008836Y004864D01*
X008827Y004900D01*
X008808Y004932D01*
X008782Y004958D01*
X008750Y004976D01*
X008715Y004986D01*
X008520Y004986D01*
X008520Y004689D01*
X008440Y004689D01*
X008440Y004986D01*
X008245Y004986D01*
X008209Y004976D01*
X008177Y004958D01*
X008151Y004932D01*
X008136Y004906D01*
X008077Y004966D01*
X007544Y004966D01*
X007502Y004923D01*
X007487Y004923D01*
X007487Y005137D01*
X007487Y005370D01*
X007498Y005388D01*
X007507Y005424D01*
X007507Y005521D01*
X007073Y005521D01*
X007073Y005521D01*
X007507Y005521D01*
X007507Y005618D01*
X007498Y005654D01*
X007487Y005672D01*
X007487Y005904D01*
X007487Y005786D02*
X009167Y005786D01*
X009100Y005708D02*
X007487Y005708D01*
X007504Y005629D02*
X009100Y005629D01*
X009100Y005551D02*
X007507Y005551D01*
X007507Y005472D02*
X009100Y005472D01*
X009100Y005394D02*
X007499Y005394D01*
X007487Y005315D02*
X009100Y005315D01*
X009100Y005237D02*
X007487Y005237D01*
X007487Y005158D02*
X009100Y005158D01*
X009100Y005080D02*
X007487Y005080D01*
X007487Y005001D02*
X009100Y005001D01*
X009100Y004923D02*
X008814Y004923D01*
X008836Y004844D02*
X009100Y004844D01*
X009100Y004765D02*
X008836Y004765D01*
X008836Y004609D02*
X008520Y004609D01*
X008520Y004312D01*
X008715Y004312D01*
X008750Y004322D01*
X008782Y004340D01*
X008808Y004366D01*
X008827Y004398D01*
X008836Y004434D01*
X008836Y004609D01*
X008836Y004608D02*
X009100Y004608D01*
X009100Y004530D02*
X008836Y004530D01*
X008836Y004451D02*
X009100Y004451D01*
X009100Y004373D02*
X008812Y004373D01*
X009100Y004294D02*
X007615Y004294D01*
X007694Y004216D02*
X009100Y004216D01*
X009100Y004137D02*
X007772Y004137D01*
X007815Y004059D02*
X009100Y004059D01*
X009100Y003980D02*
X007815Y003980D01*
X008141Y003901D02*
X008149Y003901D01*
X008147Y004373D02*
X008117Y004373D01*
X008440Y004373D02*
X008520Y004373D01*
X008520Y004451D02*
X008440Y004451D01*
X008440Y004530D02*
X008520Y004530D01*
X008520Y004608D02*
X008440Y004608D01*
X008520Y004687D02*
X009100Y004687D01*
X009440Y004765D02*
X009867Y004765D01*
X010084Y004765D02*
X010505Y004765D01*
X010505Y004687D02*
X010232Y004687D01*
X010310Y004608D02*
X010505Y004608D01*
X010505Y004530D02*
X010346Y004530D01*
X010376Y004451D02*
X010505Y004451D01*
X010505Y004373D02*
X010376Y004373D01*
X010374Y004294D02*
X010505Y004294D01*
X010505Y004216D02*
X010342Y004216D01*
X010301Y004137D02*
X010505Y004137D01*
X010505Y004059D02*
X010223Y004059D01*
X010079Y003980D02*
X010505Y003980D01*
X010505Y003901D02*
X010230Y003901D01*
X010309Y003823D02*
X010505Y003823D01*
X010505Y003744D02*
X010345Y003744D01*
X010376Y003666D02*
X010505Y003666D01*
X010505Y003587D02*
X010376Y003587D01*
X010375Y003509D02*
X010505Y003509D01*
X010505Y003430D02*
X010342Y003430D01*
X010303Y003352D02*
X010505Y003352D01*
X010505Y003273D02*
X010224Y003273D01*
X010228Y003116D02*
X010505Y003116D01*
X010505Y003037D02*
X010307Y003037D01*
X010344Y002959D02*
X010505Y002959D01*
X010505Y002880D02*
X010376Y002880D01*
X010376Y002802D02*
X010505Y002802D01*
X010505Y002723D02*
X010376Y002723D01*
X010343Y002645D02*
X010505Y002645D01*
X010505Y002566D02*
X010305Y002566D01*
X010226Y002488D02*
X010505Y002488D01*
X010505Y002409D02*
X010071Y002409D01*
X010226Y002331D02*
X010505Y002331D01*
X010505Y002252D02*
X010305Y002252D01*
X010315Y002242D02*
X010376Y002095D01*
X010376Y002016D02*
X010505Y002016D01*
X010505Y001938D02*
X010376Y001938D01*
X010344Y001859D02*
X010505Y001859D01*
X010505Y001781D02*
X010307Y001781D01*
X010228Y001702D02*
X010505Y001702D01*
X010505Y001624D02*
X010076Y001624D01*
X010224Y001545D02*
X010505Y001545D01*
X010505Y001467D02*
X010303Y001467D01*
X010342Y001388D02*
X010505Y001388D01*
X010505Y001310D02*
X010375Y001310D01*
X010376Y001231D02*
X010505Y001231D01*
X010505Y001152D02*
X010376Y001152D01*
X010345Y001074D02*
X010505Y001074D01*
X010505Y000995D02*
X010309Y000995D01*
X010230Y000917D02*
X010505Y000917D01*
X010505Y000838D02*
X010080Y000838D01*
X009871Y000838D02*
X004381Y000838D01*
X004424Y000917D02*
X009721Y000917D01*
X009643Y000995D02*
X004443Y000995D01*
X004443Y001074D02*
X009607Y001074D01*
X009576Y001152D02*
X004415Y001152D01*
X004542Y001231D02*
X009576Y001231D01*
X009577Y001310D02*
X004595Y001310D01*
X004145Y001649D02*
X003645Y001649D01*
X003348Y001231D02*
X003342Y001231D01*
X003475Y001152D02*
X001728Y001152D01*
X001706Y001074D02*
X003480Y001074D01*
X003558Y000995D02*
X001665Y000995D01*
X001597Y000917D02*
X003637Y000917D01*
X003909Y000838D02*
X001474Y000838D01*
X001343Y000838D02*
X001285Y000838D01*
X001285Y000917D02*
X001343Y000917D01*
X001343Y000995D02*
X001285Y000995D01*
X001285Y001074D02*
X001343Y001074D01*
X001343Y001152D02*
X001285Y001152D01*
X001285Y001231D02*
X000785Y001231D01*
X000785Y001152D02*
X000901Y001152D01*
X000923Y001074D02*
X000785Y001074D01*
X000785Y000995D02*
X000964Y000995D01*
X001031Y000917D02*
X000785Y000917D01*
X000785Y000838D02*
X001154Y000838D01*
X001343Y001231D02*
X002748Y001231D01*
X002695Y001310D02*
X001727Y001310D01*
X001704Y001388D02*
X002695Y001388D01*
X002695Y001467D02*
X001660Y001467D01*
X001591Y001545D02*
X002384Y001545D01*
X002305Y001624D02*
X001455Y001624D01*
X001567Y001702D02*
X002226Y001702D01*
X002148Y001781D02*
X001646Y001781D01*
X001683Y001859D02*
X002069Y001859D01*
X001991Y001938D02*
X001714Y001938D01*
X001714Y002016D02*
X001975Y002016D01*
X001975Y002094D02*
X001975Y007204D01*
X001822Y007357D01*
X001677Y007357D01*
X001653Y007300D01*
X001541Y007188D01*
X001409Y007133D01*
X001541Y007079D01*
X001653Y006966D01*
X001714Y006819D01*
X001714Y006660D01*
X001653Y006513D01*
X001541Y006401D01*
X001409Y006346D01*
X001541Y006291D01*
X001653Y006179D01*
X001975Y006179D01*
X001975Y006101D02*
X001686Y006101D01*
X001714Y006032D02*
X001653Y006179D01*
X001574Y006258D02*
X001975Y006258D01*
X001975Y006336D02*
X001432Y006336D01*
X001555Y006415D02*
X001975Y006415D01*
X001975Y006493D02*
X001634Y006493D01*
X001678Y006572D02*
X001975Y006572D01*
X001975Y006650D02*
X001710Y006650D01*
X001714Y006729D02*
X001975Y006729D01*
X001975Y006808D02*
X001714Y006808D01*
X001687Y006886D02*
X001975Y006886D01*
X001975Y006965D02*
X001654Y006965D01*
X001576Y007043D02*
X001975Y007043D01*
X001975Y007122D02*
X001437Y007122D01*
X001553Y007200D02*
X001975Y007200D01*
X001900Y007279D02*
X001632Y007279D01*
X001988Y007672D02*
X005427Y007672D01*
X005475Y007750D02*
X001655Y007750D01*
X001578Y007829D02*
X005475Y007829D01*
X005475Y007907D02*
X001442Y007907D01*
X001187Y007907D02*
X000785Y007907D01*
X000785Y007829D02*
X001050Y007829D01*
X000974Y007750D02*
X000785Y007750D01*
X000785Y007672D02*
X000941Y007672D01*
X000914Y007593D02*
X000785Y007593D01*
X000785Y007514D02*
X000914Y007514D01*
X000919Y007436D02*
X000785Y007436D01*
X000785Y007357D02*
X000952Y007357D01*
X000997Y007279D02*
X000785Y007279D01*
X000785Y007200D02*
X001075Y007200D01*
X001192Y007122D02*
X000785Y007122D01*
X000785Y007043D02*
X001052Y007043D01*
X000975Y006965D02*
X000785Y006965D01*
X000785Y006886D02*
X000942Y006886D01*
X000914Y006808D02*
X000785Y006808D01*
X000785Y006729D02*
X000914Y006729D01*
X000918Y006650D02*
X000785Y006650D01*
X000785Y006572D02*
X000951Y006572D01*
X000995Y006493D02*
X000785Y006493D01*
X000785Y006415D02*
X001073Y006415D01*
X001196Y006336D02*
X000785Y006336D01*
X000785Y006258D02*
X001054Y006258D01*
X000976Y006179D02*
X000785Y006179D01*
X000785Y006101D02*
X000943Y006101D01*
X000914Y006022D02*
X000785Y006022D01*
X000785Y005944D02*
X000914Y005944D01*
X000917Y005865D02*
X000785Y005865D01*
X000785Y005786D02*
X000950Y005786D01*
X000993Y005708D02*
X000785Y005708D01*
X000785Y005629D02*
X001071Y005629D01*
X001201Y005551D02*
X000785Y005551D01*
X000785Y005472D02*
X001056Y005472D01*
X000978Y005394D02*
X000785Y005394D01*
X000785Y005315D02*
X000944Y005315D01*
X000914Y005237D02*
X000785Y005237D01*
X000785Y005158D02*
X000914Y005158D01*
X000917Y005080D02*
X000785Y005080D01*
X000785Y005001D02*
X000949Y005001D01*
X000991Y004923D02*
X000785Y004923D01*
X000785Y004844D02*
X001069Y004844D01*
X001058Y004687D02*
X000785Y004687D01*
X000785Y004765D02*
X001206Y004765D01*
X001409Y004771D02*
X001541Y004826D01*
X001653Y004938D01*
X001714Y005085D01*
X001714Y005244D01*
X001653Y005391D01*
X001541Y005504D01*
X001409Y005559D01*
X001541Y005613D01*
X001653Y005726D01*
X001714Y005873D01*
X001714Y006032D01*
X001714Y006022D02*
X001975Y006022D01*
X001975Y005944D02*
X001714Y005944D01*
X001711Y005865D02*
X001975Y005865D01*
X001975Y005786D02*
X001679Y005786D01*
X001636Y005708D02*
X001975Y005708D01*
X001975Y005629D02*
X001557Y005629D01*
X001427Y005551D02*
X001975Y005551D01*
X001975Y005472D02*
X001572Y005472D01*
X001651Y005394D02*
X001975Y005394D01*
X001975Y005315D02*
X001685Y005315D01*
X001714Y005237D02*
X001975Y005237D01*
X001975Y005158D02*
X001714Y005158D01*
X001712Y005080D02*
X001975Y005080D01*
X001975Y005001D02*
X001679Y005001D01*
X001638Y004923D02*
X001975Y004923D01*
X001975Y004844D02*
X001559Y004844D01*
X001541Y004716D02*
X001409Y004771D01*
X001423Y004765D02*
X001975Y004765D01*
X001975Y004687D02*
X001571Y004687D01*
X001541Y004716D02*
X001653Y004604D01*
X001714Y004457D01*
X001714Y004298D01*
X001653Y004151D01*
X001541Y004038D01*
X001409Y003984D01*
X001541Y003929D01*
X001653Y003817D01*
X001714Y003670D01*
X001714Y003510D01*
X001653Y003363D01*
X001541Y003251D01*
X001409Y003196D01*
X001541Y003142D01*
X001653Y003029D01*
X001714Y002882D01*
X001714Y002723D01*
X001653Y002576D01*
X001541Y002464D01*
X001409Y002409D01*
X001541Y002354D01*
X001653Y002242D01*
X001714Y002095D01*
X001682Y002174D02*
X001975Y002174D01*
X001975Y002252D02*
X001643Y002252D01*
X001565Y002331D02*
X001975Y002331D01*
X001975Y002409D02*
X001410Y002409D01*
X001565Y002488D02*
X001975Y002488D01*
X001975Y002566D02*
X001644Y002566D01*
X001682Y002645D02*
X001975Y002645D01*
X001975Y002723D02*
X001714Y002723D01*
X001714Y002802D02*
X001975Y002802D01*
X001975Y002880D02*
X001714Y002880D01*
X001683Y002959D02*
X001975Y002959D01*
X001975Y003037D02*
X001645Y003037D01*
X001567Y003116D02*
X001975Y003116D01*
X001975Y003195D02*
X001413Y003195D01*
X001563Y003273D02*
X001975Y003273D01*
X001975Y003352D02*
X001642Y003352D01*
X001681Y003430D02*
X001975Y003430D01*
X001975Y003509D02*
X001714Y003509D01*
X001714Y003587D02*
X001975Y003587D01*
X001975Y003666D02*
X001714Y003666D01*
X001683Y003744D02*
X001975Y003744D01*
X001975Y003823D02*
X001647Y003823D01*
X001569Y003901D02*
X001975Y003901D01*
X001975Y003980D02*
X001418Y003980D01*
X001561Y004059D02*
X001975Y004059D01*
X001975Y004137D02*
X001640Y004137D01*
X001680Y004216D02*
X001975Y004216D01*
X001975Y004294D02*
X001713Y004294D01*
X001714Y004373D02*
X001975Y004373D01*
X001975Y004451D02*
X001714Y004451D01*
X001684Y004530D02*
X001975Y004530D01*
X001975Y004608D02*
X001649Y004608D01*
X001211Y003980D02*
X000785Y003980D01*
X000785Y003901D02*
X001060Y003901D01*
X000982Y003823D02*
X000785Y003823D01*
X000785Y003744D02*
X000945Y003744D01*
X000914Y003666D02*
X000785Y003666D01*
X000785Y003587D02*
X000914Y003587D01*
X000915Y003509D02*
X000785Y003509D01*
X000785Y003430D02*
X000948Y003430D01*
X000987Y003352D02*
X000785Y003352D01*
X000785Y003273D02*
X001066Y003273D01*
X001062Y003116D02*
X000785Y003116D01*
X000785Y003037D02*
X000984Y003037D01*
X000946Y002959D02*
X000785Y002959D01*
X000785Y002880D02*
X000914Y002880D01*
X000914Y002802D02*
X000785Y002802D01*
X000785Y002723D02*
X000914Y002723D01*
X000947Y002645D02*
X000785Y002645D01*
X000785Y002566D02*
X000985Y002566D01*
X001064Y002488D02*
X000785Y002488D01*
X000785Y002409D02*
X001219Y002409D01*
X001064Y002331D02*
X000785Y002331D01*
X000785Y002252D02*
X000985Y002252D01*
X000947Y002174D02*
X000785Y002174D01*
X000785Y002095D02*
X000914Y002095D01*
X000914Y002016D02*
X000785Y002016D01*
X000785Y001938D02*
X000914Y001938D01*
X000946Y001859D02*
X000785Y001859D01*
X000785Y001781D02*
X000983Y001781D01*
X001062Y001702D02*
X000785Y001702D01*
X000785Y001624D02*
X001174Y001624D01*
X001038Y001545D02*
X000785Y001545D01*
X000785Y001467D02*
X000969Y001467D01*
X000925Y001388D02*
X000785Y001388D01*
X000785Y001310D02*
X000902Y001310D01*
X000785Y000760D02*
X004003Y000760D01*
X004287Y000760D02*
X010505Y000760D01*
X010505Y000681D02*
X000785Y000681D01*
X000785Y000664D02*
X000785Y008955D01*
X003572Y011384D01*
X007718Y011384D01*
X010505Y008955D01*
X010505Y000664D01*
X000785Y000664D01*
X000785Y003195D02*
X001215Y003195D01*
X001068Y004059D02*
X000785Y004059D01*
X000785Y004137D02*
X000989Y004137D01*
X000948Y004216D02*
X000785Y004216D01*
X000785Y004294D02*
X000916Y004294D01*
X000914Y004373D02*
X000785Y004373D01*
X000785Y004451D02*
X000914Y004451D01*
X000945Y004530D02*
X000785Y004530D01*
X000785Y004608D02*
X000980Y004608D01*
X002315Y004608D02*
X003786Y004608D01*
X003783Y004530D02*
X002315Y004530D01*
X002315Y004451D02*
X003783Y004451D01*
X003790Y004373D02*
X002315Y004373D01*
X002315Y004294D02*
X003803Y004294D01*
X003803Y004216D02*
X002315Y004216D01*
X002315Y004137D02*
X003803Y004137D01*
X003803Y004059D02*
X002315Y004059D01*
X002315Y003980D02*
X003803Y003980D01*
X003803Y003901D02*
X002315Y003901D01*
X002315Y003823D02*
X003837Y003823D01*
X004599Y003823D02*
X004725Y003823D01*
X004725Y003901D02*
X004633Y003901D01*
X004633Y003980D02*
X004725Y003980D01*
X004725Y004059D02*
X004633Y004059D01*
X004633Y004137D02*
X004725Y004137D01*
X004725Y004216D02*
X004633Y004216D01*
X004633Y004294D02*
X004725Y004294D01*
X004725Y004373D02*
X004646Y004373D01*
X004653Y004451D02*
X004725Y004451D01*
X004725Y004530D02*
X004653Y004530D01*
X004649Y004608D02*
X004725Y004608D01*
X004725Y004687D02*
X004653Y004687D01*
X004653Y004765D02*
X004725Y004765D01*
X004725Y004844D02*
X004653Y004844D01*
X004633Y004923D02*
X004725Y004923D01*
X004678Y005001D02*
X004633Y005001D01*
X005062Y005472D02*
X005475Y005472D01*
X005475Y005394D02*
X005141Y005394D01*
X005215Y005319D02*
X005215Y005319D01*
X005219Y005315D02*
X005475Y005315D01*
X005475Y005237D02*
X005298Y005237D01*
X005315Y005158D02*
X005475Y005158D01*
X005475Y005080D02*
X005315Y005080D01*
X005315Y005001D02*
X005475Y005001D01*
X005475Y004923D02*
X005315Y004923D01*
X005315Y004844D02*
X005475Y004844D01*
X005538Y004765D02*
X005315Y004765D01*
X005315Y004687D02*
X005617Y004687D01*
X005695Y004608D02*
X005315Y004608D01*
X005315Y004530D02*
X006657Y004530D01*
X006657Y004451D02*
X005315Y004451D01*
X005315Y004373D02*
X006657Y004373D01*
X006657Y004294D02*
X005315Y004294D01*
X005315Y004216D02*
X006657Y004216D01*
X005893Y004137D02*
X005315Y004137D01*
X005315Y004059D02*
X005814Y004059D01*
X005736Y003980D02*
X005315Y003980D01*
X005315Y003901D02*
X005475Y003901D01*
X005397Y003823D02*
X005315Y003823D01*
X005315Y003744D02*
X005361Y003744D01*
X005347Y003666D02*
X005315Y003666D01*
X005315Y003587D02*
X005348Y003587D01*
X005315Y003509D02*
X005380Y003509D01*
X005707Y003352D02*
X007525Y003352D01*
X007474Y003430D02*
X005848Y003430D01*
X005910Y003509D02*
X007474Y003509D01*
X007474Y003587D02*
X005942Y003587D01*
X005943Y003666D02*
X007474Y003666D01*
X007474Y003744D02*
X005981Y003744D01*
X005590Y003195D02*
X009877Y003195D01*
X009723Y003116D02*
X005668Y003116D01*
X005747Y003037D02*
X009645Y003037D01*
X009608Y002959D02*
X007253Y002959D01*
X007226Y002986D02*
X007296Y002915D01*
X007296Y002819D01*
X007572Y002819D01*
X007572Y002856D01*
X007643Y002927D01*
X008057Y002927D01*
X008127Y002856D01*
X008127Y002442D01*
X008057Y002372D01*
X007643Y002372D01*
X007572Y002442D01*
X007572Y002479D01*
X007296Y002479D01*
X007296Y002383D01*
X007226Y002313D01*
X006733Y002313D01*
X006663Y002383D01*
X006663Y002915D01*
X006733Y002986D01*
X007226Y002986D01*
X007296Y002880D02*
X007596Y002880D01*
X007605Y002409D02*
X007296Y002409D01*
X007244Y002331D02*
X008655Y002331D01*
X008685Y002409D02*
X008725Y002409D01*
X009015Y002645D02*
X009608Y002645D01*
X009576Y002723D02*
X008936Y002723D01*
X008858Y002802D02*
X009576Y002802D01*
X009576Y002880D02*
X008694Y002880D01*
X009065Y002566D02*
X009646Y002566D01*
X009725Y002488D02*
X009065Y002488D01*
X009065Y002409D02*
X009880Y002409D01*
X009725Y002331D02*
X009136Y002331D01*
X009175Y002252D02*
X009647Y002252D01*
X009608Y002174D02*
X009193Y002174D01*
X009576Y002095D02*
X009576Y001936D01*
X009637Y001789D01*
X009644Y001781D02*
X009065Y001781D01*
X009064Y001702D02*
X009723Y001702D01*
X009727Y001545D02*
X008906Y001545D01*
X008985Y001624D02*
X009876Y001624D01*
X009649Y001467D02*
X008718Y001467D01*
X008664Y001388D02*
X009609Y001388D01*
X008725Y001859D02*
X008715Y001859D01*
X008684Y001938D02*
X007274Y001938D01*
X007296Y001915D02*
X007226Y001986D01*
X006733Y001986D01*
X006663Y001915D01*
X006663Y001383D01*
X006733Y001313D01*
X007226Y001313D01*
X007296Y001383D01*
X007296Y001479D01*
X007572Y001479D01*
X007572Y001442D01*
X007643Y001372D01*
X008057Y001372D01*
X008127Y001442D01*
X008127Y001856D01*
X008057Y001927D01*
X007643Y001927D01*
X007572Y001856D01*
X007572Y001819D01*
X007296Y001819D01*
X007296Y001915D01*
X007296Y001859D02*
X007575Y001859D01*
X007572Y001467D02*
X007296Y001467D01*
X007296Y001388D02*
X007626Y001388D01*
X008073Y001388D02*
X008217Y001388D01*
X008163Y001467D02*
X008127Y001467D01*
X008127Y001545D02*
X008163Y001545D01*
X008163Y001624D02*
X008127Y001624D01*
X008127Y001702D02*
X008163Y001702D01*
X008163Y001781D02*
X008127Y001781D01*
X008124Y001859D02*
X008166Y001859D01*
X008196Y002409D02*
X008094Y002409D01*
X008127Y002488D02*
X008163Y002488D01*
X008163Y002566D02*
X008127Y002566D01*
X008127Y002645D02*
X008163Y002645D01*
X008163Y002723D02*
X008127Y002723D01*
X008127Y002802D02*
X008163Y002802D01*
X008187Y002880D02*
X008103Y002880D01*
X008096Y003352D02*
X008194Y003352D01*
X008816Y003823D02*
X008953Y003823D01*
X009032Y003901D02*
X008810Y003901D01*
X008520Y004765D02*
X008440Y004765D01*
X008440Y004844D02*
X008520Y004844D01*
X008520Y004923D02*
X008440Y004923D01*
X008146Y004923D02*
X008120Y004923D01*
X007072Y005521D02*
X006637Y005521D01*
X007072Y005521D01*
X007072Y005521D01*
X006637Y005551D02*
X005815Y005551D01*
X005815Y005629D02*
X006640Y005629D01*
X006657Y005708D02*
X005815Y005708D01*
X005815Y005786D02*
X006657Y005786D01*
X006657Y005865D02*
X005815Y005865D01*
X005815Y005944D02*
X006657Y005944D01*
X006657Y006022D02*
X005815Y006022D01*
X005815Y006101D02*
X006657Y006101D01*
X006657Y006179D02*
X005815Y006179D01*
X005815Y006258D02*
X006657Y006258D01*
X006657Y006336D02*
X005815Y006336D01*
X005815Y006415D02*
X006657Y006415D01*
X006657Y006493D02*
X005815Y006493D01*
X005815Y006572D02*
X006657Y006572D01*
X006657Y006650D02*
X005815Y006650D01*
X005805Y006729D02*
X006657Y006729D01*
X006657Y006808D02*
X005727Y006808D01*
X005715Y006819D02*
X005715Y006819D01*
X005648Y006886D02*
X006657Y006886D01*
X006657Y006965D02*
X005576Y006965D01*
X005654Y007043D02*
X006657Y007043D01*
X006657Y007122D02*
X005733Y007122D01*
X005812Y007200D02*
X006657Y007200D01*
X006657Y007279D02*
X005890Y007279D01*
X005969Y007357D02*
X006657Y007357D01*
X006657Y007436D02*
X006047Y007436D01*
X006071Y007514D02*
X009576Y007514D01*
X009581Y007436D02*
X007487Y007436D01*
X007487Y007357D02*
X009613Y007357D01*
X009658Y007279D02*
X007487Y007279D01*
X007487Y007200D02*
X009737Y007200D01*
X009853Y007122D02*
X007487Y007122D01*
X007487Y007043D02*
X009714Y007043D01*
X009636Y006965D02*
X007487Y006965D01*
X007487Y006886D02*
X009603Y006886D01*
X009576Y006808D02*
X007487Y006808D01*
X007487Y006729D02*
X009576Y006729D01*
X009580Y006650D02*
X007487Y006650D01*
X007487Y006572D02*
X009612Y006572D01*
X009656Y006493D02*
X007487Y006493D01*
X007487Y006415D02*
X009735Y006415D01*
X009858Y006336D02*
X007487Y006336D01*
X007487Y006258D02*
X009716Y006258D01*
X009637Y006179D02*
X009613Y006122D01*
X009503Y006122D01*
X010094Y006336D02*
X010505Y006336D01*
X010505Y006258D02*
X010236Y006258D01*
X010314Y006179D02*
X010505Y006179D01*
X010505Y006101D02*
X010347Y006101D01*
X010376Y006022D02*
X010505Y006022D01*
X010505Y005944D02*
X010376Y005944D01*
X010373Y005865D02*
X010505Y005865D01*
X010505Y005786D02*
X010340Y005786D01*
X010297Y005708D02*
X010505Y005708D01*
X010505Y005629D02*
X010219Y005629D01*
X010089Y005551D02*
X010505Y005551D01*
X010505Y005472D02*
X010234Y005472D01*
X010312Y005394D02*
X010505Y005394D01*
X010505Y005315D02*
X010346Y005315D01*
X010376Y005237D02*
X010505Y005237D01*
X010505Y005158D02*
X010376Y005158D01*
X010373Y005080D02*
X010505Y005080D01*
X010505Y005001D02*
X010341Y005001D01*
X010299Y004923D02*
X010505Y004923D01*
X010505Y004844D02*
X010221Y004844D01*
X010217Y006415D02*
X010505Y006415D01*
X010505Y006493D02*
X010295Y006493D01*
X010339Y006572D02*
X010505Y006572D01*
X010505Y006650D02*
X010372Y006650D01*
X010376Y006729D02*
X010505Y006729D01*
X010505Y006808D02*
X010376Y006808D01*
X010348Y006886D02*
X010505Y006886D01*
X010505Y006965D02*
X010315Y006965D01*
X010238Y007043D02*
X010505Y007043D01*
X010505Y007122D02*
X010098Y007122D01*
X010215Y007200D02*
X010505Y007200D01*
X010505Y007279D02*
X010293Y007279D01*
X010338Y007357D02*
X010505Y007357D01*
X010505Y007436D02*
X010371Y007436D01*
X010376Y007514D02*
X010505Y007514D01*
X010505Y007593D02*
X010376Y007593D01*
X010349Y007672D02*
X010505Y007672D01*
X010505Y007750D02*
X010316Y007750D01*
X010240Y007829D02*
X010505Y007829D01*
X010505Y007907D02*
X010103Y007907D01*
X010213Y007986D02*
X010505Y007986D01*
X010505Y008064D02*
X010291Y008064D01*
X010338Y008143D02*
X010505Y008143D01*
X010505Y008221D02*
X010370Y008221D01*
X010376Y008300D02*
X010505Y008300D01*
X010505Y008378D02*
X010376Y008378D01*
X010350Y008457D02*
X010505Y008457D01*
X010505Y008536D02*
X010317Y008536D01*
X010242Y008614D02*
X010505Y008614D01*
X010505Y008693D02*
X010108Y008693D01*
X009844Y008693D02*
X008915Y008693D01*
X008915Y008771D02*
X010505Y008771D01*
X010505Y008850D02*
X008915Y008850D01*
X008915Y008928D02*
X010505Y008928D01*
X010446Y009007D02*
X008901Y009007D01*
X008559Y009007D02*
X008479Y009007D01*
X008479Y008928D02*
X008559Y008928D01*
X008559Y008850D02*
X008479Y008850D01*
X008479Y008771D02*
X008559Y008771D01*
X008559Y008693D02*
X008479Y008693D01*
X008559Y008614D02*
X009710Y008614D01*
X009634Y008536D02*
X008915Y008536D01*
X008915Y008457D02*
X009602Y008457D01*
X009581Y008221D02*
X008821Y008221D01*
X008905Y008300D02*
X008915Y008335D01*
X008559Y008300D02*
X008479Y008300D01*
X008479Y008378D02*
X008559Y008378D01*
X008559Y008457D02*
X008479Y008457D01*
X008479Y008536D02*
X008559Y008536D01*
X008559Y008221D02*
X008479Y008221D01*
X008217Y008221D02*
X007995Y008221D01*
X008044Y008143D02*
X009614Y008143D01*
X009660Y008064D02*
X008068Y008064D01*
X008068Y007986D02*
X009739Y007986D01*
X009848Y007907D02*
X008045Y007907D01*
X007997Y007829D02*
X009712Y007829D01*
X009635Y007750D02*
X007888Y007750D01*
X007652Y007750D02*
X006071Y007750D01*
X006071Y007672D02*
X009603Y007672D01*
X009576Y007593D02*
X006071Y007593D01*
X006071Y007829D02*
X007543Y007829D01*
X007495Y007907D02*
X006071Y007907D01*
X006071Y007986D02*
X007472Y007986D01*
X007472Y008064D02*
X006071Y008064D01*
X006071Y008143D02*
X007496Y008143D01*
X007545Y008221D02*
X006071Y008221D01*
X006071Y008300D02*
X007399Y008300D01*
X007395Y008378D02*
X006071Y008378D01*
X006071Y008457D02*
X007395Y008457D01*
X007395Y008850D02*
X006435Y008850D01*
X006356Y008928D02*
X007395Y008928D01*
X007408Y009007D02*
X006356Y009007D01*
X006356Y009085D02*
X010356Y009085D01*
X010266Y009164D02*
X006356Y009164D01*
X006356Y009242D02*
X010176Y009242D01*
X010086Y009321D02*
X006356Y009321D01*
X006356Y009399D02*
X009995Y009399D01*
X009905Y009478D02*
X006356Y009478D01*
X006356Y009557D02*
X006378Y009557D01*
X006487Y009557D02*
X009815Y009557D01*
X009725Y009635D02*
X006616Y009635D01*
X006664Y009714D02*
X009635Y009714D01*
X009545Y009792D02*
X006681Y009792D01*
X006673Y009871D02*
X009455Y009871D01*
X009364Y009949D02*
X006637Y009949D01*
X006537Y010028D02*
X009274Y010028D01*
X009184Y010106D02*
X002106Y010106D01*
X002016Y010028D02*
X004753Y010028D01*
X004653Y009949D02*
X001926Y009949D01*
X001835Y009871D02*
X004617Y009871D01*
X004609Y009792D02*
X001745Y009792D01*
X001655Y009714D02*
X004626Y009714D01*
X004674Y009635D02*
X001565Y009635D01*
X001475Y009557D02*
X004803Y009557D01*
X004914Y009478D02*
X001385Y009478D01*
X001295Y009399D02*
X004914Y009399D01*
X004914Y009321D02*
X001204Y009321D01*
X001114Y009242D02*
X004914Y009242D01*
X004914Y009164D02*
X001024Y009164D01*
X000934Y009085D02*
X004914Y009085D01*
X004922Y009007D02*
X000844Y009007D01*
X000785Y008928D02*
X004993Y008928D01*
X005133Y008928D02*
X005133Y008928D01*
X005133Y009007D02*
X005133Y009007D01*
X005133Y009085D02*
X005133Y009085D01*
X005133Y009164D02*
X005133Y009164D01*
X005133Y009242D02*
X005133Y009242D01*
X005133Y009321D02*
X005133Y009321D01*
X005133Y009399D02*
X005133Y009399D01*
X005133Y009478D02*
X005133Y009478D01*
X005133Y009557D02*
X005133Y009557D01*
X005133Y009635D02*
X005133Y009635D01*
X005133Y009714D02*
X005133Y009714D01*
X005133Y009792D02*
X005133Y009792D01*
X005133Y009871D02*
X005133Y009871D01*
X005133Y009949D02*
X005133Y009949D01*
X005133Y010028D02*
X005133Y010028D01*
X005221Y010155D02*
X006069Y010155D01*
X006139Y010225D01*
X006139Y011073D01*
X006069Y011143D01*
X005221Y011143D01*
X005151Y011073D01*
X005151Y010225D01*
X005221Y010155D01*
X005191Y010185D02*
X002196Y010185D01*
X002286Y010263D02*
X004327Y010263D01*
X004304Y010275D02*
X004365Y010244D01*
X004431Y010223D01*
X004493Y010213D01*
X004493Y010609D01*
X004573Y010609D01*
X004573Y010689D01*
X004969Y010689D01*
X004959Y010751D01*
X004938Y010817D01*
X004906Y010878D01*
X004866Y010934D01*
X004817Y010982D01*
X004762Y011023D01*
X004701Y011054D01*
X004635Y011075D01*
X004573Y011085D01*
X004573Y010689D01*
X004493Y010689D01*
X004493Y011085D01*
X004431Y011075D01*
X004365Y011054D01*
X004304Y011023D01*
X004248Y010982D01*
X004200Y010934D01*
X004159Y010878D01*
X004128Y010817D01*
X004107Y010751D01*
X004097Y010689D01*
X004493Y010689D01*
X004493Y010609D01*
X004097Y010609D01*
X004107Y010547D01*
X004128Y010481D01*
X004159Y010420D01*
X004200Y010364D01*
X004248Y010316D01*
X004304Y010275D01*
X004222Y010342D02*
X002376Y010342D01*
X002467Y010421D02*
X004159Y010421D01*
X004122Y010499D02*
X002557Y010499D01*
X002647Y010578D02*
X004102Y010578D01*
X004104Y010735D02*
X002827Y010735D01*
X002917Y010813D02*
X004127Y010813D01*
X004169Y010892D02*
X003007Y010892D01*
X003098Y010970D02*
X004236Y010970D01*
X004355Y011049D02*
X003188Y011049D01*
X003278Y011127D02*
X005206Y011127D01*
X005151Y011049D02*
X004710Y011049D01*
X004573Y011049D02*
X004493Y011049D01*
X004493Y010970D02*
X004573Y010970D01*
X004573Y010892D02*
X004493Y010892D01*
X004493Y010813D02*
X004573Y010813D01*
X004573Y010735D02*
X004493Y010735D01*
X004493Y010656D02*
X002737Y010656D01*
X003368Y011206D02*
X007922Y011206D01*
X008012Y011127D02*
X006084Y011127D01*
X006139Y011049D02*
X006580Y011049D01*
X006590Y011054D02*
X006528Y011023D01*
X006473Y010982D01*
X006424Y010934D01*
X006384Y010878D01*
X006352Y010817D01*
X006331Y010751D01*
X006321Y010689D01*
X006717Y010689D01*
X006717Y010609D01*
X006321Y010609D01*
X006331Y010547D01*
X006352Y010481D01*
X006384Y010420D01*
X006424Y010364D01*
X006473Y010316D01*
X006528Y010275D01*
X006590Y010244D01*
X006655Y010223D01*
X006717Y010213D01*
X006717Y010609D01*
X006797Y010609D01*
X006797Y010213D01*
X006860Y010223D01*
X006925Y010244D01*
X006986Y010275D01*
X007042Y010316D01*
X007090Y010364D01*
X007131Y010420D01*
X007162Y010481D01*
X007183Y010547D01*
X007193Y010609D01*
X006797Y010609D01*
X006797Y010689D01*
X006717Y010689D01*
X006717Y011085D01*
X006655Y011075D01*
X006590Y011054D01*
X006717Y011049D02*
X006797Y011049D01*
X006797Y011085D02*
X006860Y011075D01*
X006925Y011054D01*
X006986Y011023D01*
X007042Y010982D01*
X007090Y010934D01*
X007131Y010878D01*
X007162Y010817D01*
X007183Y010751D01*
X007193Y010689D01*
X006797Y010689D01*
X006797Y011085D01*
X006797Y010970D02*
X006717Y010970D01*
X006717Y010892D02*
X006797Y010892D01*
X006797Y010813D02*
X006717Y010813D01*
X006717Y010735D02*
X006797Y010735D01*
X006797Y010656D02*
X008553Y010656D01*
X008643Y010578D02*
X007188Y010578D01*
X007168Y010499D02*
X008733Y010499D01*
X008823Y010421D02*
X007131Y010421D01*
X007068Y010342D02*
X008914Y010342D01*
X009004Y010263D02*
X006963Y010263D01*
X006797Y010263D02*
X006717Y010263D01*
X006717Y010342D02*
X006797Y010342D01*
X006797Y010421D02*
X006717Y010421D01*
X006717Y010499D02*
X006797Y010499D01*
X006797Y010578D02*
X006717Y010578D01*
X006717Y010656D02*
X006139Y010656D01*
X006139Y010578D02*
X006326Y010578D01*
X006347Y010499D02*
X006139Y010499D01*
X006139Y010421D02*
X006383Y010421D01*
X006446Y010342D02*
X006139Y010342D01*
X006139Y010263D02*
X006552Y010263D01*
X006327Y010028D02*
X006318Y010028D01*
X006099Y010185D02*
X009094Y010185D01*
X008463Y010735D02*
X007186Y010735D01*
X007163Y010813D02*
X008373Y010813D01*
X008283Y010892D02*
X007121Y010892D01*
X007054Y010970D02*
X008192Y010970D01*
X008102Y011049D02*
X006935Y011049D01*
X006461Y010970D02*
X006139Y010970D01*
X006139Y010892D02*
X006394Y010892D01*
X006351Y010813D02*
X006139Y010813D01*
X006139Y010735D02*
X006329Y010735D01*
X005151Y010735D02*
X004962Y010735D01*
X004939Y010813D02*
X005151Y010813D01*
X005151Y010892D02*
X004896Y010892D01*
X004829Y010970D02*
X005151Y010970D01*
X005151Y010656D02*
X004573Y010656D01*
X004573Y010609D02*
X004969Y010609D01*
X004959Y010547D01*
X004938Y010481D01*
X004906Y010420D01*
X004866Y010364D01*
X004817Y010316D01*
X004762Y010275D01*
X004701Y010244D01*
X004635Y010223D01*
X004573Y010213D01*
X004573Y010609D01*
X004573Y010578D02*
X004493Y010578D01*
X004493Y010499D02*
X004573Y010499D01*
X004573Y010421D02*
X004493Y010421D01*
X004493Y010342D02*
X004573Y010342D01*
X004573Y010263D02*
X004493Y010263D01*
X004738Y010263D02*
X005151Y010263D01*
X005151Y010342D02*
X004844Y010342D01*
X004907Y010421D02*
X005151Y010421D01*
X005151Y010499D02*
X004943Y010499D01*
X004964Y010578D02*
X005151Y010578D01*
X005273Y008928D02*
X005475Y008928D01*
X005475Y008850D02*
X000785Y008850D01*
X000785Y008771D02*
X005475Y008771D01*
X005475Y008693D02*
X001666Y008693D01*
X001714Y008614D02*
X005475Y008614D01*
X005475Y008536D02*
X001714Y008536D01*
X001714Y008457D02*
X005475Y008457D01*
X005475Y008378D02*
X001714Y008378D01*
X001714Y008300D02*
X005475Y008300D01*
X005475Y008221D02*
X001714Y008221D01*
X001714Y008143D02*
X005475Y008143D01*
X005475Y008064D02*
X001714Y008064D01*
X001714Y007986D02*
X005475Y007986D01*
X005349Y007593D02*
X002066Y007593D01*
X002145Y007514D02*
X005270Y007514D01*
X005475Y006572D02*
X004653Y006572D01*
X004653Y006545D02*
X004218Y006545D01*
X004218Y006545D01*
X004653Y006545D01*
X004653Y006493D02*
X005475Y006493D01*
X005475Y006415D02*
X004644Y006415D01*
X004633Y006336D02*
X005475Y006336D01*
X005475Y006258D02*
X004633Y006258D01*
X004633Y006179D02*
X005475Y006179D01*
X005475Y006101D02*
X004633Y006101D01*
X004633Y006022D02*
X005475Y006022D01*
X005475Y005944D02*
X004633Y005944D01*
X004653Y005865D02*
X005475Y005865D01*
X005475Y005786D02*
X004653Y005786D01*
X004653Y005777D02*
X004218Y005777D01*
X004218Y005777D01*
X004653Y005777D01*
X004653Y005708D02*
X005475Y005708D01*
X005475Y005629D02*
X004905Y005629D01*
X004984Y005551D02*
X005475Y005551D01*
X005815Y005472D02*
X006637Y005472D01*
X006645Y005394D02*
X006322Y005394D01*
X006399Y005315D02*
X006657Y005315D01*
X006657Y005237D02*
X006432Y005237D01*
X005968Y005394D02*
X005815Y005394D01*
X005815Y005315D02*
X005891Y005315D01*
X005858Y005237D02*
X005815Y005237D01*
X005815Y005158D02*
X005847Y005158D01*
X005851Y005080D02*
X005815Y005080D01*
X005815Y005001D02*
X005883Y005001D01*
X004725Y003744D02*
X002315Y003744D01*
X002315Y003666D02*
X004725Y003666D01*
X004145Y002649D02*
X003645Y002649D01*
X003783Y004687D02*
X002315Y004687D01*
X002315Y004765D02*
X003783Y004765D01*
X003783Y004844D02*
X002315Y004844D01*
X002315Y004923D02*
X003803Y004923D01*
X003803Y005001D02*
X002315Y005001D01*
X002315Y005080D02*
X003803Y005080D01*
X003803Y005158D02*
X002315Y005158D01*
X002315Y005237D02*
X002361Y005237D01*
X002329Y005315D02*
X002315Y005315D01*
X002315Y005394D02*
X002329Y005394D01*
X002329Y005472D02*
X002315Y005472D01*
X002315Y005551D02*
X002645Y005551D01*
X002645Y005564D02*
X002329Y005564D01*
X002329Y005739D01*
X002338Y005775D01*
X002357Y005807D01*
X002383Y005833D01*
X002415Y005851D01*
X002450Y005861D01*
X002645Y005861D01*
X002645Y005564D01*
X002645Y005629D02*
X002725Y005629D01*
X002725Y005708D02*
X002645Y005708D01*
X002645Y005786D02*
X002725Y005786D01*
X003026Y005786D02*
X003034Y005786D01*
X003138Y005865D02*
X002315Y005865D01*
X002315Y005786D02*
X002345Y005786D01*
X002329Y005708D02*
X002315Y005708D01*
X002315Y005629D02*
X002329Y005629D01*
X002315Y005944D02*
X003105Y005944D01*
X003097Y006022D02*
X002315Y006022D01*
X002315Y006101D02*
X003104Y006101D01*
X003136Y006179D02*
X002315Y006179D01*
X002315Y006258D02*
X003207Y006258D01*
X003084Y006336D02*
X002981Y006336D01*
X002725Y006336D02*
X002645Y006336D01*
X002645Y006415D02*
X002725Y006415D01*
X002725Y006493D02*
X002645Y006493D01*
X002645Y006572D02*
X002725Y006572D01*
X002645Y006650D02*
X002315Y006650D01*
X002329Y006689D02*
X002645Y006689D01*
X002645Y006986D01*
X002450Y006986D01*
X002415Y006976D01*
X002383Y006958D01*
X002357Y006932D01*
X002338Y006900D01*
X002329Y006864D01*
X002329Y006689D01*
X002329Y006729D02*
X002315Y006729D01*
X002315Y006808D02*
X002329Y006808D01*
X002335Y006886D02*
X002315Y006886D01*
X002315Y006965D02*
X002394Y006965D01*
X002315Y007043D02*
X003803Y007043D01*
X003803Y006965D02*
X003622Y006965D01*
X003691Y006886D02*
X003803Y006886D01*
X003803Y006808D02*
X003691Y006808D01*
X003691Y006729D02*
X003803Y006729D01*
X003785Y006650D02*
X003691Y006650D01*
X003691Y006572D02*
X003783Y006572D01*
X003783Y006493D02*
X003691Y006493D01*
X003691Y006415D02*
X003791Y006415D01*
X003803Y006336D02*
X003625Y006336D01*
X003583Y006258D02*
X003803Y006258D01*
X003783Y005786D02*
X003675Y005786D01*
X003691Y005708D02*
X003783Y005708D01*
X003783Y005777D02*
X004217Y005777D01*
X004217Y005777D01*
X003783Y005777D01*
X003801Y005629D02*
X003691Y005629D01*
X003691Y005551D02*
X003803Y005551D01*
X003803Y005315D02*
X003691Y005315D01*
X003650Y005237D02*
X003803Y005237D01*
X003059Y005237D02*
X003009Y005237D01*
X002725Y005237D02*
X002645Y005237D01*
X002645Y005315D02*
X002725Y005315D01*
X002725Y005394D02*
X002645Y005394D01*
X002645Y005472D02*
X002725Y005472D01*
X002390Y006336D02*
X002315Y006336D01*
X002315Y006415D02*
X002334Y006415D01*
X002329Y006493D02*
X002315Y006493D01*
X002315Y006572D02*
X002329Y006572D01*
X002645Y006729D02*
X002725Y006729D01*
X002725Y006808D02*
X002645Y006808D01*
X002645Y006886D02*
X002725Y006886D01*
X002725Y006965D02*
X002645Y006965D01*
X002976Y006965D02*
X003087Y006965D01*
X003803Y007122D02*
X002315Y007122D01*
X002315Y007200D02*
X003803Y007200D01*
X003803Y007279D02*
X002315Y007279D01*
X002302Y007357D02*
X003803Y007357D01*
X003803Y007436D02*
X002224Y007436D01*
X000914Y007986D02*
X000785Y007986D01*
X000785Y008064D02*
X000914Y008064D01*
X000914Y008143D02*
X000785Y008143D01*
X000785Y008221D02*
X000914Y008221D01*
X000914Y008300D02*
X000785Y008300D01*
X000785Y008378D02*
X000914Y008378D01*
X000914Y008457D02*
X000785Y008457D01*
X000785Y008536D02*
X000914Y008536D01*
X000914Y008614D02*
X000785Y008614D01*
X000785Y008693D02*
X000963Y008693D01*
X003458Y011285D02*
X007832Y011285D01*
X007742Y011363D02*
X003548Y011363D01*
X006071Y008693D02*
X006111Y008693D01*
X006071Y008614D02*
X006190Y008614D01*
X006268Y008536D02*
X006071Y008536D01*
X008134Y009007D02*
X008138Y009007D01*
X007474Y003823D02*
X007453Y003823D01*
X006706Y002959D02*
X006584Y002959D01*
X006627Y002880D02*
X006663Y002880D01*
X006663Y002802D02*
X006627Y002802D01*
X006627Y002723D02*
X006663Y002723D01*
X006663Y002645D02*
X006627Y002645D01*
X006627Y002566D02*
X006663Y002566D01*
X006663Y002488D02*
X006627Y002488D01*
X006627Y002409D02*
X006663Y002409D01*
X006715Y002331D02*
X006575Y002331D01*
X006605Y001938D02*
X006685Y001938D01*
X006663Y001859D02*
X006627Y001859D01*
X006627Y001781D02*
X006663Y001781D01*
X006663Y001702D02*
X006627Y001702D01*
X006627Y001624D02*
X006663Y001624D01*
X006663Y001545D02*
X006627Y001545D01*
X006627Y001467D02*
X006663Y001467D01*
X006663Y001388D02*
X006627Y001388D01*
X005994Y002880D02*
X005904Y002880D01*
X005826Y002959D02*
X006037Y002959D01*
X010075Y003195D02*
X010505Y003195D01*
D24*
X008895Y002149D03*
X009145Y001149D03*
X007270Y003399D03*
X005645Y003649D03*
X006145Y005149D03*
X008145Y005649D03*
X008145Y006149D03*
X007770Y008024D03*
X003395Y006024D03*
X003145Y004649D03*
X003145Y004149D03*
X003645Y003274D03*
X002520Y002649D03*
X004145Y001024D03*
X005270Y001649D03*
X001770Y007149D03*
M02*
