%
M48
M72
T01C0.0197
T02C0.0217
T03C0.0276
T04C0.0394
%
T01
X1770Y7149
X3395Y6024
X3145Y4649
X3145Y4149
X3645Y3274
X2520Y2649
X4145Y1024
X5270Y1649
X5645Y3649
X6145Y5149
X7270Y3399
X8895Y2149
X9145Y1149
X8145Y5649
X8145Y6149
X7770Y8024
T02
X4858Y9803
X6432Y9803
T03
X1314Y8314
X1314Y7527
X1314Y6740
X1314Y5952
X1314Y5165
X1314Y4377
X1314Y3590
X1314Y2803
X1314Y2015
X1314Y1228
X9976Y8314
X9976Y7527
X9976Y6740
X9976Y5952
X9976Y5165
X9976Y4377
X9976Y3590
X9976Y2803
X9976Y2015
X9976Y1228
T04
X4533Y10649
X6757Y10649
M30
